<?xml version="1.0" encoding="UTF-8"?>
<!-- Generator: visioncortex VTracer 0.6.4 -->
<svg version="1.1" xmlns="http://www.w3.org/2000/svg" width="1507" height="326">
<path d="M0 0 C3.26734474 1.26159665 5.84155084 2.43321712 8.53125 4.6875 C9.16981934 5.21593506 9.80838867 5.74437012 10.46630859 6.28881836 C11.13742676 6.8535083 11.80854492 7.41819824 12.5 8 C13.93901285 9.19012286 15.37912982 10.37891187 16.8203125 11.56640625 C17.5309082 12.15309082 18.24150391 12.73977539 18.97363281 13.34423828 C23.30113526 16.88027703 27.76626765 20.2365145 32.20849609 23.62646484 C35.71596925 26.3156232 39.20036641 29.03455409 42.6875 31.75 C43.44627441 32.34071289 44.20504883 32.93142578 44.98681641 33.54003906 C46.54188812 34.75073842 48.0969006 35.96151386 49.65185547 37.17236328 C51.98697983 38.98986598 54.3233471 40.80575788 56.66015625 42.62109375 C66.38199772 50.17428802 76.07901743 57.75788528 85.74853516 65.37792969 C91.95195859 70.26609737 98.16469967 75.1385629 104.4375 79.9375 C109.90707129 84.12391945 115.29224341 88.41008086 120.66210938 92.72338867 C125.40404255 96.5310214 130.18056664 100.29073421 135 104 C133.46311628 108.47473627 129.86947567 110.60957133 126.1875 113.25 C124.72972673 114.31930164 123.27273522 115.38966964 121.81640625 116.4609375 C121.03668457 117.03166992 120.25696289 117.60240234 119.45361328 118.19042969 C115.14120016 121.370888 110.88435458 124.62401757 106.625 127.875 C105.29166626 128.89122437 105.29166626 128.89122437 103.93139648 129.92797852 C98.18033631 134.31737143 92.45572668 138.73937989 86.75 143.1875 C61.68953359 162.72245272 61.68953359 162.72245272 51 170 C43.60068908 166.46052986 36.73583902 162.46602581 29.91408062 157.92373657 C25.55468624 155.07635916 21.28607498 152.59346094 16.49116516 150.55053711 C2.74664309 144.45185068 2.74664309 144.45185068 -0.17996597 138.6680603 C-2.02423302 131.92778192 -1.55786985 125.03901204 -1.26953125 118.125 C-1.2527382 115.87431742 -1.24533414 113.62354752 -1.24674988 111.37280273 C-1.22564525 105.44454646 -1.07938708 99.52588733 -0.90551758 93.60040283 C-0.75312363 87.70173722 -0.71542986 81.80263308 -0.66992188 75.90234375 C-0.58709829 66.80685484 -0.44284803 57.7147738 -0.24462891 48.62109375 C-0.00039984 37.28785345 0.07848039 25.9606141 0.05078125 14.625 C0.04917685 13.85503693 0.04757244 13.08507385 0.04591942 12.29177856 C0.03658994 8.19448205 0.0215825 4.09725333 0 0 Z " fill="#FE720E" transform="translate(1087,11)"/>
<path d="M0 0 C8.58 0 17.16 0 26 0 C27.01578125 1.91039062 28.0315625 3.82078125 29.078125 5.7890625 C35.97816128 18.75689034 42.89975623 31.71047765 49.95507812 44.59472656 C54.02685969 52.03323154 58.03125957 59.50608424 62 67 C65.12913194 63.32196563 67.42325229 59.59905842 69.65234375 55.3203125 C69.98910629 54.67882263 70.32586884 54.03733276 70.6728363 53.37640381 C71.3927442 52.00464573 72.11044553 50.63172772 72.82611084 49.25775146 C74.70630316 45.64966973 76.60406416 42.05089043 78.50390625 38.453125 C78.88353516 37.7339389 79.26316406 37.01475281 79.65429688 36.27377319 C83.61631786 28.79350559 87.76550107 21.42560967 91.97631836 14.08251953 C92.46624268 13.22770996 92.95616699 12.37290039 93.4609375 11.4921875 C94.09201416 10.39946533 94.09201416 10.39946533 94.73583984 9.28466797 C96.23955401 6.56706325 97.61100528 3.77798944 99 1 C106.92 0.67 114.84 0.34 123 0 C124.16963529 2.33927057 124.12330589 3.69676648 124.12025452 6.30264282 C124.12231651 7.65723854 124.12231651 7.65723854 124.12442017 9.03919983 C124.11902725 10.52920753 124.11902725 10.52920753 124.11352539 12.04931641 C124.11367142 13.09324051 124.11381744 14.13716461 124.1139679 15.21272278 C124.11326922 18.67569023 124.10547891 22.1386044 124.09765625 25.6015625 C124.09579191 27.99767019 124.09436808 30.39377827 124.09336853 32.78988647 C124.08954461 39.10608975 124.07971538 45.42227014 124.06866455 51.73846436 C124.05844774 58.17980642 124.05387033 64.62115217 124.04882812 71.0625 C124.03809301 83.70834502 124.02049721 96.35416703 124 109 C116.41 109 108.82 109 101 109 C100.67 88.54 100.34 68.08 100 47 C97.6075 51.186875 95.215 55.37375 92.75 59.6875 C90.37182617 63.84765625 90.37182617 63.84765625 89.35383606 65.62841797 C86.33128313 70.9161879 83.31218905 76.20587073 80.30078125 81.5 C79.7500293 82.46719971 79.19927734 83.43439941 78.63183594 84.4309082 C77.60123161 86.24119965 76.57189394 88.0522129 75.54394531 89.86401367 C75.08729492 90.66556885 74.63064453 91.46712402 74.16015625 92.29296875 C73.56666382 93.33747192 73.56666382 93.33747192 72.96118164 94.40307617 C72 96 72 96 71 97 C68.07663706 97.3433981 65.24628452 97.55654799 62.3125 97.6875 C61.50876953 97.76677734 60.70503906 97.84605469 59.87695312 97.92773438 C57.27489979 98.01922112 55.44683917 97.90923238 53 97 C50.2926937 94.02534866 48.72776463 90.60690805 47 87 C45.9698072 85.10783929 44.93190592 83.21985712 43.88671875 81.3359375 C42.8179839 79.35020984 41.75159761 77.36321648 40.6875 75.375 C35.57853437 65.84420236 30.30375365 56.42889538 25 47 C24.67 67.46 24.34 87.92 24 109 C16.08 109 8.16 109 0 109 C0 73.03 0 37.06 0 0 Z " fill="#051B2B" transform="translate(214,147)"/>
<path d="M0 0 C3.06935528 0.51170401 4.52198741 1.45144732 6.98999023 3.33374023 C11.05432363 6.32484379 15.17528395 9.18289163 19.40405273 11.93530273 C20.01657394 12.33573792 20.62909515 12.7361731 21.26017761 13.14874268 C22.55120777 13.99263787 23.84263566 14.83592485 25.13442993 15.6786499 C38.98577133 24.71659197 52.76798697 33.85504292 66.50976562 43.05859375 C67.16363754 43.49569168 67.81750946 43.93278961 68.49119568 44.38313293 C69.75876354 45.23133076 71.02489334 46.08168235 72.28944397 46.93437195 C76.94567152 50.0586693 81.72444906 52.92865744 86.61767578 55.67016602 C89.26906275 58.04060914 89.32562855 59.96864963 89.58764648 63.43139648 C79.7270156 70.04820993 69.79962152 76.55220451 59.82104492 82.98950195 C56.05205308 85.42278418 52.28765962 87.8631104 48.52514648 90.30639648 C47.73293701 90.82081299 46.94072754 91.33522949 46.12451172 91.86523438 C40.49660731 95.52554239 34.88171655 99.20539715 29.27124023 102.89233398 C28.54672165 103.36835052 27.82220306 103.84436707 27.07572937 104.33480835 C23.4249094 106.73371719 19.77502612 109.13403421 16.12646484 111.53637695 C14.77760905 112.42329065 13.42873302 113.31017356 12.07983398 114.19702148 C11.45366684 114.60995453 10.82749969 115.02288757 10.18235779 115.44833374 C5.61190248 118.45103353 3.15772084 119.89556935 -2.41235352 119.43139648 C-5.00570063 115.54137581 -4.71958929 112.26238706 -4.73120117 107.74755859 C-4.7412468 106.85919815 -4.75129242 105.97083771 -4.76164246 105.05555725 C-4.79261817 102.10662476 -4.80957038 99.15778462 -4.82641602 96.20874023 C-4.8451439 94.14863829 -4.8647185 92.08854388 -4.88510132 90.02845764 C-4.93656452 84.58560758 -4.97606578 79.14273189 -5.01324463 73.69976807 C-5.05285818 68.22677987 -5.10437218 62.75390554 -5.15454102 57.28100586 C-5.33670516 36.79638873 -5.33670516 36.79638873 -5.37554932 27.65304565 C-5.39246092 24.16380546 -5.44622538 20.67781246 -5.52679443 17.18948364 C-5.54064871 16.36242951 -5.55450298 15.53537539 -5.56877708 14.68325901 C-5.5948469 13.13905608 -5.63232513 11.5949845 -5.68361855 10.05141354 C-5.72466853 6.89076131 -5.59455421 4.76118282 -4.05082703 1.9670105 C-2.41235352 0.43139648 -2.41235352 0.43139648 0 0 Z " fill="#02B4FC" transform="translate(1104.412353515625,188.568603515625)"/>
<path d="M0 0 C1.5631897 0.00785522 1.5631897 0.00785522 3.15795898 0.01586914 C4.28266602 0.0190918 5.40737305 0.02231445 6.56616211 0.02563477 C7.75016602 0.03401367 8.93416992 0.04239258 10.15405273 0.05102539 C11.34192383 0.05553711 12.52979492 0.06004883 13.75366211 0.06469727 C16.69967499 0.07652864 19.64558954 0.09301252 22.59155273 0.11352539 C30.61667327 17.98470581 38.20534877 36.02863235 45.74331665 54.10913086 C46.12764862 55.03097168 46.51198059 55.9528125 46.90795898 56.90258789 C47.29301605 57.8263623 47.67807312 58.75013672 48.07479858 59.7019043 C50.7986957 66.23044425 53.54622554 72.74868416 56.30639648 79.26196289 C56.68122665 80.1474733 57.05605682 81.0329837 57.44224548 81.94532776 C59.60895589 87.06426057 59.60895589 87.06426057 61.78256226 92.18026733 C62.76624804 94.49136152 63.74571356 96.80420227 64.72436523 99.11743164 C65.0171788 99.80175262 65.30999237 100.48607361 65.61167908 101.19113159 C67.59155273 105.88615113 67.59155273 105.88615113 67.59155273 108.11352539 C59.01155273 108.11352539 50.43155273 108.11352539 41.59155273 108.11352539 C38.95155273 101.51352539 36.31155273 94.91352539 33.59155273 88.11352539 C17.75155273 87.78352539 1.91155273 87.45352539 -14.40844727 87.11352539 C-15.39844727 90.41352539 -16.38844727 93.71352539 -17.40844727 97.11352539 C-18.08413972 98.97983454 -18.78409714 100.83805245 -19.53344727 102.67602539 C-19.86602539 103.50231445 -20.19860352 104.32860352 -20.54125977 105.17993164 C-21.40844727 107.11352539 -21.40844727 107.11352539 -22.40844727 108.11352539 C-24.26214338 108.20090184 -26.11912267 108.22050692 -27.97485352 108.21118164 C-29.09956055 108.20795898 -30.22426758 108.20473633 -31.38305664 108.20141602 C-32.56706055 108.19303711 -33.75106445 108.1846582 -34.97094727 108.17602539 C-36.15881836 108.17151367 -37.34668945 108.16700195 -38.57055664 108.16235352 C-41.51656953 108.15052214 -44.46248407 108.13403826 -47.40844727 108.11352539 C-39.78573037 88.77680287 -31.83187501 69.58185574 -23.84785461 50.39231873 C-21.07742614 43.73086211 -18.32080671 37.06377966 -15.56860352 30.39477539 C-14.39511463 27.55396772 -13.22141457 24.71324739 -12.04763794 21.87255859 C-11.29019989 20.03810121 -10.53358317 18.20330449 -9.77780151 16.36816406 C-8.72984414 13.82401764 -7.67886362 11.28114041 -6.62719727 8.73852539 C-6.3144838 7.977052 -6.00177032 7.21557861 -5.67958069 6.43103027 C-3.07354593 0.14487571 -3.07354593 0.14487571 0 0 Z M8.59155273 27.11352539 C8.35033691 27.75676758 8.10912109 28.40000977 7.8605957 29.06274414 C0.72607422 48.08813477 0.72607422 48.08813477 -6.40844727 67.11352539 C4.15155273 67.11352539 14.71155273 67.11352539 25.59155273 67.11352539 C23.03272342 58.57590034 23.03272342 58.57590034 19.92749023 50.33618164 C19.44538086 49.1637793 18.96327148 47.99137695 18.46655273 46.78344727 C17.97155273 45.59299805 17.47655273 44.40254883 16.96655273 43.17602539 C15.97363379 40.77137937 14.98141195 38.36644535 13.98999023 35.96118164 C13.55348145 34.90938721 13.11697266 33.85759277 12.66723633 32.77392578 C11.91391562 30.91079919 11.22706298 29.02005614 10.59155273 27.11352539 C9.93155273 27.11352539 9.27155273 27.11352539 8.59155273 27.11352539 Z " fill="#081C2C" transform="translate(729.408447265625,147.886474609375)"/>
<path d="M0 0 C8.25 0 16.5 0 25 0 C29.26867864 9.098682 33.27743302 18.26649477 37.14929199 27.53869629 C38.87297315 31.66599938 40.60450235 35.79000753 42.3359375 39.9140625 C42.70400513 40.79106812 43.07207275 41.66807373 43.45129395 42.57165527 C48.60726478 54.84366814 53.83686742 67.08456744 59.0635376 79.32659912 C60.30884758 82.24340656 61.55290198 85.16074718 62.796875 88.078125 C63.34597031 89.36195572 63.34597031 89.36195572 63.90615845 90.67172241 C66.35585341 96.41920057 68.67825419 102.19563547 71 108 C62.09 108 53.18 108 44 108 C42.845 105.091875 41.69 102.18375 40.5 99.1875 C40.13455078 98.27508545 39.76910156 97.3626709 39.39257812 96.42260742 C38.9662207 95.33749878 38.9662207 95.33749878 38.53125 94.23046875 C38.23798828 93.49207764 37.94472656 92.75368652 37.64257812 91.99291992 C37 90 37 90 37 87 C20.83 87 4.66 87 -12 87 C-12.99 90.3 -13.98 93.6 -15 97 C-15.67569245 98.86630915 -16.37564988 100.72452706 -17.125 102.5625 C-17.45757812 103.38878906 -17.79015625 104.21507812 -18.1328125 105.06640625 C-19 107 -19 107 -20 108 C-21.85369611 108.08737645 -23.71067541 108.10698153 -25.56640625 108.09765625 C-26.69111328 108.09443359 -27.81582031 108.09121094 -28.97460938 108.08789062 C-30.15861328 108.07951172 -31.34261719 108.07113281 -32.5625 108.0625 C-33.75037109 108.05798828 -34.93824219 108.05347656 -36.16210938 108.04882812 C-39.10812226 108.03699675 -42.05403681 108.02051287 -45 108 C-44.77562256 107.46673096 -44.55124512 106.93346191 -44.32006836 106.3840332 C-39.0420556 93.82065389 -33.86036834 81.22188769 -28.75656128 68.58694458 C-23.19579796 54.82174099 -17.57942935 41.08133972 -11.875 27.375 C-11.56325836 26.62432251 -11.25151672 25.87364502 -10.93032837 25.10021973 C-10.03635723 22.94875391 -9.13974054 20.79841113 -8.2421875 18.6484375 C-7.7354248 17.43333496 -7.22866211 16.21823242 -6.70654297 14.96630859 C-4.54592456 9.94464813 -2.26215687 4.97674512 0 0 Z M12 27 C10.36108156 30.9273142 8.72550411 34.8559993 7.09277344 38.78588867 C6.53896256 40.11763377 5.98430063 41.44902533 5.42871094 42.7800293 C4.62200575 44.71306384 3.81855562 46.64742628 3.015625 48.58203125 C2.53383789 49.73936768 2.05205078 50.8967041 1.55566406 52.08911133 C-0.40477846 57.01759983 -2.18736523 62.01525437 -4 67 C6.56 67 17.12 67 28 67 C27.33656485 63.68282425 26.81880952 61.23578935 25.60131836 58.21948242 C25.32110336 57.51913376 25.04088837 56.8187851 24.75218201 56.09721375 C24.45111038 55.3574379 24.15003876 54.61766205 23.83984375 53.85546875 C23.53051407 53.08568192 23.22118439 52.31589508 22.90248108 51.52278137 C21.91820532 49.07603234 20.9279469 46.63175656 19.9375 44.1875 C19.26718129 42.52424842 18.597255 40.86083863 17.92773438 39.19726562 C16.28969625 35.12966374 14.64629005 31.06426867 13 27 C12.67 27 12.34 27 12 27 Z " fill="#071D2C" transform="translate(403,148)"/>
<path d="M0 0 C62.25802365 0 62.25802365 0 77.4375 11.375 C85.04997102 19.17314104 88.08343145 28.1384092 88.4375 38.9375 C88.1558335 50.2164062 84.13495819 59.15261798 76 66.90625 C70.52033213 71.5248272 64.84119151 73.99612343 58 76 C57.43224854 76.17797119 56.86449707 76.35594238 56.27954102 76.53930664 C53.17522094 77.16668717 50.21312542 77.11107257 47.046875 77.09765625 C45.83870117 77.09515869 44.63052734 77.09266113 43.38574219 77.09008789 C41.85594727 77.08098389 40.32615234 77.07187988 38.75 77.0625 C33.8825 77.041875 29.015 77.02125 24 77 C24 87.56 24 98.12 24 109 C16.08 109 8.16 109 0 109 C0 73.03 0 37.06 0 0 Z M24 23 C24 33.89 24 44.78 24 56 C29.135625 56.0928125 29.135625 56.0928125 34.375 56.1875 C35.96127197 56.22846802 35.96127197 56.22846802 37.57958984 56.27026367 C45.49510823 56.33856421 53.60120578 55.70942095 59.5625 50 C63.80347737 44.78033554 63.63174575 39.48468432 63 33 C60.8088436 27.76027818 57.76307698 25.95876813 52.76586914 23.81811523 C47.41258393 22.23466932 41.96833551 22.59208593 36.4375 22.75 C30.2809375 22.87375 30.2809375 22.87375 24 23 Z " fill="#0B202F" transform="translate(490,147)"/>
<path d="M0 0 C24.42 0 48.84 0 74 0 C74 6.6 74 13.2 74 20 C73 21 73 21 71.01951599 21.12025452 C70.15125687 21.11803391 69.28299774 21.11581329 68.38842773 21.11352539 C67.40748642 21.11344986 66.4265451 21.11337433 65.4158783 21.11329651 C64.3492244 21.10813522 63.2825705 21.10297394 62.18359375 21.09765625 C60.55430687 21.09553383 60.55430687 21.09553383 58.8921051 21.09336853 C55.40720925 21.08775048 51.92237658 21.07519492 48.4375 21.0625 C46.08138113 21.05748733 43.72526126 21.05292402 41.36914062 21.04882812 C35.57938289 21.03862411 29.78976255 21.01905224 24 21 C24.33 28.26 24.66 35.52 25 43 C39.19 43 53.38 43 68 43 C68 49.93 68 56.86 68 64 C53.48 64 38.96 64 24 64 C24 71.59 24 79.18 24 87 C40.83 87 57.66 87 75 87 C75 93.93 75 100.86 75 108 C50.25 108 25.5 108 0 108 C0 72.36 0 36.72 0 0 Z " fill="#061D2E" transform="translate(596,148)"/>
<path d="M0 0 C24.09 0 48.18 0 73 0 C73 6.93 73 13.86 73 21 C56.5 21 40 21 23 21 C23 28.59 23 36.18 23 44 C24.485 43.505 24.485 43.505 26 43 C27.39655459 42.91410697 28.79685777 42.88227285 30.19604492 42.88647461 C31.03668991 42.88655014 31.8773349 42.88662567 32.74345398 42.88670349 C33.64666885 42.89186478 34.54988373 42.89702606 35.48046875 42.90234375 C36.40845779 42.9037587 37.33644684 42.90517365 38.29255676 42.90663147 C41.25757058 42.91223063 44.22250899 42.92478296 47.1875 42.9375 C49.19726453 42.94251511 51.20703025 42.947078 53.21679688 42.95117188 C58.1445837 42.96134905 63.0722074 42.98092467 68 43 C68 49.93 68 56.86 68 64 C53.15 64 38.3 64 23 64 C23 71.59 23 79.18 23 87 C40.16 87 57.32 87 75 87 C75 93.93 75 100.86 75 108 C50.25 108 25.5 108 0 108 C0 72.36 0 36.72 0 0 Z " fill="#051C2E" transform="translate(897,148)"/>
<path d="M0 0 C2.875 0.9375 2.875 0.9375 4.03881454 2.71103573 C4.95028688 5.13796216 5.12649514 6.91221228 5.12896729 9.49842834 C5.13460693 10.40832016 5.14024658 11.31821198 5.14605713 12.25567627 C5.14200867 13.24646179 5.13796021 14.23724731 5.13378906 15.25805664 C5.1372937 16.30720749 5.14079834 17.35635834 5.14440918 18.43730164 C5.15321652 21.90748701 5.14738118 25.37746878 5.140625 28.84765625 C5.14197183 31.25613952 5.14391252 33.66462252 5.14642334 36.07310486 C5.14937317 41.1211099 5.14508104 46.16904419 5.13574219 51.21704102 C5.12434169 57.69608465 5.13091189 64.17496271 5.14288712 70.65400028 C5.15010426 75.62700149 5.14781855 80.59996325 5.14263153 85.57296562 C5.14129495 87.96244768 5.14294304 90.35193329 5.14759064 92.74141121 C5.15265407 96.07648371 5.14494828 99.41128561 5.13378906 102.74633789 C5.13783752 103.73914764 5.14188599 104.7319574 5.14605713 105.75485229 C5.14041748 106.66192429 5.13477783 107.56899628 5.12896729 108.5035553 C5.12821323 109.29202378 5.12745918 110.08049227 5.12668228 110.89285374 C4.875 112.9375 4.875 112.9375 2.875 115.9375 C-1.24921453 116.80114432 -3.71379839 115.80873584 -7.14453125 113.6484375 C-8.75142379 112.5498477 -10.348346 111.43659641 -11.9375 110.3125 C-13.80789122 109.02762256 -15.6790386 107.74384545 -17.55078125 106.4609375 C-18.5867041 105.74518555 -19.62262695 105.02943359 -20.68994141 104.29199219 C-26.57005716 100.24569634 -32.53029907 96.31774287 -38.47543335 92.36798096 C-40.62190614 90.93955889 -42.76517798 89.50645956 -44.9074707 88.07177734 C-51.19421165 83.86414281 -57.48943596 79.68152981 -63.875 75.625 C-64.86048828 74.99207031 -65.84597656 74.35914063 -66.86132812 73.70703125 C-68.64694733 72.56373019 -70.44201862 71.43500009 -72.24804688 70.32421875 C-77.80151153 66.74521655 -77.80151153 66.74521655 -79.3828125 62.796875 C-79.125 59.9375 -79.125 59.9375 -77.7109375 57.953125 C-76.61652344 57.07914063 -76.61652344 57.07914063 -75.5 56.1875 C-74.24896484 55.16849609 -74.24896484 55.16849609 -72.97265625 54.12890625 C-72.03292969 53.40574219 -71.09320312 52.68257812 -70.125 51.9375 C-69.13371094 51.16277344 -68.14242188 50.38804687 -67.12109375 49.58984375 C-64.94505 47.89913396 -62.75743448 46.22469279 -60.5625 44.55859375 C-57.15818834 41.97158707 -53.79438307 39.33561674 -50.4375 36.6875 C-42.81847293 30.68560313 -35.16042059 24.73435831 -27.50097656 18.78417969 C-25.03870716 16.87043063 -22.57777365 14.95497521 -20.1171875 13.0390625 C-19.30217773 12.40460205 -18.48716797 11.7701416 -17.64746094 11.11645508 C-16.08542364 9.90038836 -14.52356569 8.68409124 -12.96191406 7.4675293 C-11.90182129 6.64248901 -11.90182129 6.64248901 -10.8203125 5.80078125 C-10.20172363 5.31907471 -9.58313477 4.83736816 -8.94580078 4.34106445 C-8.04450439 3.64630005 -8.04450439 3.64630005 -7.125 2.9375 C-6.4532373 2.38215576 -5.78147461 1.82681152 -5.08935547 1.25463867 C-3.125 -0.0625 -3.125 -0.0625 0 0 Z " fill="#2BC652" transform="translate(1241.125,138.0625)"/>
<path d="M0 0 C1.2188166 1.00829373 2.43182198 2.02399321 3.625 3.0625 C1.96636495 7.38754836 -1.246041 10.15668825 -4.5 13.3125 C-5.34498047 14.14394531 -5.34498047 14.14394531 -6.20703125 14.9921875 C-7.59186028 16.35354485 -8.98283204 17.70864859 -10.375 19.0625 C-13.57376082 17.86572224 -16.31222403 16.55427582 -19.125 14.625 C-27.48750553 9.36144903 -35.52652451 8.00816199 -45.375 9.0625 C-52.54680351 10.75949013 -58.67144231 14.35551667 -63.375 20.0625 C-69.09233946 30.10339966 -70.95509635 39.80976749 -68.76171875 51.265625 C-66.41194514 59.33973698 -62.38605386 65.65381802 -55.359375 70.43359375 C-46.44747516 75.22286276 -37.75411866 76.13961631 -28 73.5 C-22.38341115 71.72464146 -18.59643248 69.33083524 -14.375 65.2578125 C-12.375 64.0625 -12.375 64.0625 -10.01953125 64.484375 C-6.49209516 66.58937379 -3.88636897 69.22981464 -1.0625 72.1875 C-0.51271484 72.75082031 0.03707031 73.31414062 0.60351562 73.89453125 C1.95095438 75.27712058 3.28894273 76.66890916 4.625 78.0625 C3.11458816 82.24225604 0.11748853 84.1862894 -3.4375 86.5625 C-4.02168701 86.95832275 -4.60587402 87.35414551 -5.20776367 87.76196289 C-19.65448213 97.35274163 -36.56824153 99.66951894 -53.5703125 96.375 C-66.89763438 92.86010192 -79.29064627 84.99501973 -86.75 73.1875 C-94.81044588 58.55082631 -97.04320026 41.71083915 -92.75 25.5 C-87.82867627 10.73602881 -78.10126997 -0.63629257 -64.375 -7.9375 C-42.67370525 -18.6042381 -18.85609292 -14.57061726 0 0 Z " fill="#081D2D" transform="translate(1080.375,159.9375)"/>
<path d="M0 0 C29.37 0 58.74 0 89 0 C89 6.93 89 13.86 89 21 C78.11 21 67.22 21 56 21 C56 49.71 56 78.42 56 108 C48.41 108 40.82 108 33 108 C33 79.29 33 50.58 33 21 C22.11 21 11.22 21 0 21 C0 14.07 0 7.14 0 0 Z " fill="#051B2C" transform="translate(790,148)"/>
<path d="M0 0 C8.58 0 17.16 0 26 0 C26 1.32 26 2.64 26 4 C14.615 3.505 14.615 3.505 3 3 C3 36.99 3 70.98 3 106 C9.27 106.33 15.54 106.66 22 107 C22.33 85.88 22.66 64.76 23 43 C25 45 25 45 25.20254517 47.67019653 C25.16923599 49.36896439 25.16923599 49.36896439 25.13525391 51.10205078 C25.11508209 52.38322784 25.09491028 53.66440491 25.0741272 54.98440552 C25.04182163 56.38804617 25.00929482 57.79168174 24.9765625 59.1953125 C24.95039934 60.62733397 24.92513201 62.05937206 24.90072632 63.49142456 C24.83403608 67.26292944 24.75515228 71.03408527 24.67376709 74.80529785 C24.59288497 78.65261423 24.52348131 82.50013554 24.453125 86.34765625 C24.31334647 93.89869417 24.15963184 101.44935092 24 109 C16.08 109 8.16 109 0 109 C0 73.03 0 37.06 0 0 Z " fill="#3F464A" transform="translate(214,147)"/>
<path d="M0 0 C18.15 0 36.3 0 55 0 C55 0.33 55 0.66 55 1 C37.51 1 20.02 1 2 1 C2 35.65 2 70.3 2 106 C25.43 106 48.86 106 73 106 C73 100.39 73 94.78 73 89 C56.5 89 40 89 23 89 C23 88.67 23 88.34 23 88 C40.16 88 57.32 88 75 88 C75 94.6 75 101.2 75 108 C50.25 108 25.5 108 0 108 C0 72.36 0 36.72 0 0 Z " fill="#020913" transform="translate(897,148)"/>
<path d="M0 0 C24.42 0 48.84 0 74 0 C74 6.6 74 13.2 74 20 C73 21 73 21 71.01951599 21.12025452 C70.15125687 21.11803391 69.28299774 21.11581329 68.38842773 21.11352539 C67.40748642 21.11344986 66.4265451 21.11337433 65.4158783 21.11329651 C64.3492244 21.10813522 63.2825705 21.10297394 62.18359375 21.09765625 C60.55430687 21.09553383 60.55430687 21.09553383 58.8921051 21.09336853 C55.40720925 21.08775048 51.92237658 21.07519492 48.4375 21.0625 C46.08138113 21.05748733 43.72526126 21.05292402 41.36914062 21.04882812 C35.57940536 21.03777519 29.78970719 21.02101951 24 21 C23.67 20.34 23.34 19.68 23 19 C39.17 19 55.34 19 72 19 C72 13.06 72 7.12 72 1 C48.9 1 25.8 1 2 1 C2 36.31 2 71.62 2 108 C1.34 108 0.68 108 0 108 C0 72.36 0 36.72 0 0 Z " fill="#47484A" transform="translate(596,148)"/>
<path d="M0 0 C1.34888732 0.00015905 2.69778075 0.00584927 4.04663086 0.01586914 C5.10991859 0.01799156 5.10991859 0.01799156 6.19468689 0.02015686 C8.46699173 0.02577096 10.73919936 0.03832576 13.01147461 0.05102539 C14.54858257 0.05603858 16.08569206 0.0606018 17.62280273 0.06469727 C21.39823103 0.07574497 25.17358632 0.09301898 28.94897461 0.11352539 C28.94897461 0.77352539 28.94897461 1.43352539 28.94897461 2.11352539 C18.71897461 2.11352539 8.48897461 2.11352539 -2.05102539 2.11352539 C-2.05102539 30.82352539 -2.05102539 59.53352539 -2.05102539 89.11352539 C-9.64102539 89.11352539 -17.23102539 89.11352539 -25.05102539 89.11352539 C-25.05102539 60.07352539 -25.05102539 31.03352539 -25.05102539 1.11352539 C-24.72102539 1.11352539 -24.39102539 1.11352539 -24.05102539 1.11352539 C-24.05102539 29.49352539 -24.05102539 57.87352539 -24.05102539 87.11352539 C-17.45102539 87.11352539 -10.85102539 87.11352539 -4.05102539 87.11352539 C-4.05626221 84.51356689 -4.06149902 81.9136084 -4.06689453 79.23486328 C-4.08342979 70.66535123 -4.09449635 62.09583849 -4.10283756 53.52631474 C-4.10806655 48.32824424 -4.11516449 43.13019003 -4.12646484 37.93212891 C-4.13729315 32.92010271 -4.1433021 27.90809221 -4.14590263 22.89605522 C-4.14775699 20.97940257 -4.15137779 19.06275082 -4.15675545 17.14610481 C-4.16396514 14.47124467 -4.16501636 11.79645026 -4.16455078 9.12158203 C-4.16814606 8.32101379 -4.17174133 7.52044556 -4.17544556 6.69561768 C-4.16304364 0.1549024 -4.16304364 0.1549024 0 0 Z " fill="#010711" transform="translate(848.051025390625,166.886474609375)"/>
<path d="M0 0 C0.33 0 0.66 0 1 0 C1 23.76 1 47.52 1 72 C-6.59 72 -14.18 72 -22 72 C-22.33 50.55 -22.66 29.1 -23 7 C-21.66666667 7 -20.33333333 7 -19 7 C-19 27.46 -19 47.92 -19 69 C-13.39 69 -7.78 69 -2 69 C-2 53.82 -2 38.64 -2 23 C-1.67 23 -1.34 23 -1 23 C-0.67 15.41 -0.34 7.82 0 0 Z " fill="#425460" transform="translate(337,184)"/>
<path d="M0 0 C7.59 0 15.18 0 23 0 C23 0.66 23 1.32 23 2 C15.74 1.67 8.48 1.34 1 1 C1 34.99 1 68.98 1 104 C7.27 104.33 13.54 104.66 20 105 C20.33 83.88 20.66 62.76 21 41 C23 43 23 43 23.20254517 45.67019653 C23.16923599 47.36896439 23.16923599 47.36896439 23.13525391 49.10205078 C23.11508209 50.38322784 23.09491028 51.66440491 23.0741272 52.98440552 C23.04182163 54.38804617 23.00929482 55.79168174 22.9765625 57.1953125 C22.95039934 58.62733397 22.92513201 60.05937206 22.90072632 61.49142456 C22.83403608 65.26292944 22.75515228 69.03408527 22.67376709 72.80529785 C22.59288497 76.65261423 22.52348131 80.50013554 22.453125 84.34765625 C22.31334647 91.89869417 22.15963184 99.44935092 22 107 C14.74 107 7.48 107 0 107 C0 71.69 0 36.38 0 0 Z " fill="#263948" transform="translate(216,149)"/>
<path d="M0 0 C17.16 0 34.32 0 52 0 C52 6.6 52 13.2 52 20 C27.91 20 3.82 20 -21 20 C-21 19.34 -21 18.68 -21 18 C2.43 18 25.86 18 50 18 C50 12.39 50 6.78 50 1 C33.5 1 17 1 0 1 C0 0.67 0 0.34 0 0 Z " fill="#000611" transform="translate(619,236)"/>
<path d="M0 0 C1.13917374 0.00666183 1.13917374 0.00666183 2.30136108 0.01345825 C3.59247299 0.01368484 3.59247299 0.01368484 4.90966797 0.01391602 C5.83991791 0.02423859 6.77016785 0.03456116 7.72860718 0.04519653 C8.68020721 0.04802643 9.63180725 0.05085632 10.61224365 0.05377197 C13.6589706 0.06498914 16.70540621 0.09009641 19.75204468 0.11550903 C21.81454044 0.12553685 23.8770408 0.13466304 25.93954468 0.14285278 C31.00224789 0.16323404 36.06431923 0.20237972 41.12704468 0.24050903 C41.12704468 7.17050903 41.12704468 14.10050903 41.12704468 21.24050903 C26.27704468 21.24050903 11.42704468 21.24050903 -3.87295532 21.24050903 C-3.87295532 20.91050903 -3.87295532 20.58050903 -3.87295532 20.24050903 C10.31704468 20.24050903 24.50704468 20.24050903 39.12704468 20.24050903 C39.12704468 14.30050903 39.12704468 8.36050903 39.12704468 2.24050903 C24.93704468 2.24050903 10.74704468 2.24050903 -3.87295532 2.24050903 C-1.87295532 0.24050903 -1.87295532 0.24050903 0 0 Z " fill="#33373A" transform="translate(622.8729553222656,190.75949096679688)"/>
<path d="M0 0 C0.33 0 0.66 0 1 0 C1.495 9.405 1.495 9.405 2 19 C-12.85 19 -27.7 19 -43 19 C-43 26.59 -43 34.18 -43 42 C-25.84 42 -8.68 42 9 42 C9 42.33 9 42.66 9 43 C1.47043741 43.16780996 -6.05926191 43.32777637 -13.58911133 43.48217773 C-16.15295219 43.53568935 -18.71675563 43.59102543 -21.28051758 43.64819336 C-24.95646083 43.72984943 -28.63248687 43.80503532 -32.30859375 43.87890625 C-33.46274277 43.90594131 -34.61689178 43.93297638 -35.80601501 43.96083069 C-36.86703934 43.98092697 -37.92806366 44.00102325 -39.02124023 44.02172852 C-40.43021828 44.05170677 -40.43021828 44.05170677 -41.86766052 44.08229065 C-44 44 -44 44 -45 43 C-45.09946453 41.23140807 -45.13080217 39.45888549 -45.1328125 37.6875 C-45.13410156 36.61242187 -45.13539063 35.53734375 -45.13671875 34.4296875 C-45.13091797 32.73199219 -45.13091797 32.73199219 -45.125 31 C-45.12886719 29.86820313 -45.13273438 28.73640625 -45.13671875 27.5703125 C-45.13542969 26.49523437 -45.13414062 25.42015625 -45.1328125 24.3125 C-45.13168457 23.31863281 -45.13055664 22.32476562 -45.12939453 21.30078125 C-45 19 -45 19 -44 18 C-42.61839885 17.9072167 -41.23211962 17.88252957 -39.84741211 17.88647461 C-38.52615578 17.88658791 -38.52615578 17.88658791 -37.1782074 17.88670349 C-36.22092239 17.89186478 -35.26363739 17.89702606 -34.27734375 17.90234375 C-32.81452721 17.90446617 -32.81452721 17.90446617 -31.32215881 17.90663147 C-28.19390857 17.91224867 -25.06572877 17.92480407 -21.9375 17.9375 C-19.82226666 17.94251278 -17.70703219 17.94707607 -15.59179688 17.95117188 C-10.39450393 17.96222369 -5.19726392 17.97949984 0 18 C0 12.06 0 6.12 0 0 Z " fill="#21262E" transform="translate(963,193)"/>
<path d="M0 0 C0.66 0 1.32 0 2 0 C2.02888146 3.31248187 2.04675799 6.62493167 2.0625 9.9375 C2.07087891 10.88302734 2.07925781 11.82855469 2.08789062 12.80273438 C2.09111328 13.70185547 2.09433594 14.60097656 2.09765625 15.52734375 C2.10289307 16.35999756 2.10812988 17.19265137 2.11352539 18.05053711 C2 20 2 20 1 21 C-0.5348297 21.09319449 -2.07392082 21.117458 -3.61157227 21.11352539 C-4.59251358 21.11344986 -5.5734549 21.11337433 -6.5841217 21.11329651 C-7.6507756 21.10813522 -8.7174295 21.10297394 -9.81640625 21.09765625 C-11.44569313 21.09553383 -11.44569313 21.09553383 -13.1078949 21.09336853 C-16.59279075 21.08775048 -20.07762342 21.07519492 -23.5625 21.0625 C-25.91861887 21.05748733 -28.27473874 21.05292402 -30.63085938 21.04882812 C-36.42059464 21.03777519 -42.21029281 21.02101951 -48 21 C-48.33 20.34 -48.66 19.68 -49 19 C-32.83 19 -16.66 19 0 19 C0 12.73 0 6.46 0 0 Z " fill="#4F5255" transform="translate(668,148)"/>
<path d="M0 0 C5.94 0 11.88 0 18 0 C18 6.93 18 13.86 18 21 C1.5 21 -15 21 -32 21 C-32 20.67 -32 20.34 -32 20 C-16.16 19.67 -0.32 19.34 16 19 C16 13.06 16 7.12 16 1 C10.72 1 5.44 1 0 1 C0 0.67 0 0.34 0 0 Z " fill="#484D54" transform="translate(952,148)"/>
<path d="M0 0 C0.33 0 0.66 0 1 0 C1.33 5.94 1.66 11.88 2 18 C12.23 18.33 22.46 18.66 33 19 C33 19.66 33 20.32 33 21 C22.11 21 11.22 21 0 21 C0 14.07 0 7.14 0 0 Z " fill="#37414A" transform="translate(790,148)"/>
<path d="M0 0 C0.33 0.99 0.66 1.98 1 3 C-7.58 3 -16.16 3 -25 3 C-25 2.34 -25 1.68 -25 1 C-21.20836402 0.8326303 -17.4166864 0.66622322 -13.625 0.5 C-12.54476563 0.45230469 -11.46453125 0.40460938 -10.3515625 0.35546875 C-9.3203125 0.31035156 -8.2890625 0.26523438 -7.2265625 0.21875 C-6.27346191 0.17685547 -5.32036133 0.13496094 -4.33837891 0.09179688 C-2.89304218 0.03505783 -1.44644999 0 0 0 Z " fill="#09121E" transform="translate(473,253)"/>
<path d="M0 0 C7.92 0.33 15.84 0.66 24 1 C24 1.66 24 2.32 24 3 C15.75 3 7.5 3 -1 3 C-0.67 2.01 -0.34 1.02 0 0 Z " fill="#09121E" transform="translate(359,253)"/>
<path d="M0 0 C0.66 1.32 1.32 2.64 2 4 C7.94 4 13.88 4 20 4 C20.33 3.34 20.66 2.68 21 2 C21.99 2 22.98 2 24 2 C23.67 3.65 23.34 5.3 23 7 C11.615 6.505 11.615 6.505 0 6 C-1 3 -1 3 0 0 Z " fill="#142634" transform="translate(361,248)"/>
<path d="M0 0 C3.82990706 0.64743667 6.5283898 2.45311237 9.75 4.5625 C11.22726562 5.52349609 11.22726562 5.52349609 12.734375 6.50390625 C13.85585937 7.24447266 13.85585937 7.24447266 15 8 C11.25 9.125 11.25 9.125 9 8 C9 7.34 9 6.68 9 6 C8.2575 5.7525 7.515 5.505 6.75 5.25 C3.79875938 3.90852699 2.15185026 2.39094474 0 0 Z " fill="#2AB3FB" transform="translate(1154,222)"/>
<path d="M0 0 C1.2989839 0.90626784 2.58893167 1.82549537 3.875 2.75 C4.59429688 3.26046875 5.31359375 3.7709375 6.0546875 4.296875 C8.08570565 6.07503547 8.97855012 7.52701607 10 10 C7 10 7 10 5.17578125 8.57421875 C4.56089844 7.95160156 3.94601562 7.32898438 3.3125 6.6875 C2.37857422 5.76517578 2.37857422 5.76517578 1.42578125 4.82421875 C0 3 0 3 0 0 Z " fill="#222B34" transform="translate(996,234)"/>
<path d="M0 0 C0.66 0.33 1.32 0.66 2 1 C1.50628906 1.40992188 1.01257812 1.81984375 0.50390625 2.2421875 C-0.13675781 2.78101563 -0.77742188 3.31984375 -1.4375 3.875 C-2.07558594 4.40867188 -2.71367188 4.94234375 -3.37109375 5.4921875 C-5.10805004 6.9222757 -5.10805004 6.9222757 -6 9 C-8.0625 9.625 -8.0625 9.625 -10 10 C-8.5741914 6.54804233 -6.90253666 4.8985744 -3.875 2.75 C-3.15054687 2.22921875 -2.42609375 1.7084375 -1.6796875 1.171875 C-1.12539062 0.78515625 -0.57109375 0.3984375 0 0 Z " fill="#23C13E" transform="translate(1178,185)"/>
</svg>
