<?xml version="1.0" encoding="UTF-8"?>
<svg xmlns="http://www.w3.org/2000/svg" viewBox="0 0 961.6 843.7">
  <defs>
    <style>
      .cls-1 {
        fill: #00a6a8;
      }

      .cls-1, .cls-2, .cls-3, .cls-4, .cls-5, .cls-6, .cls-7, .cls-8, .cls-9, .cls-10, .cls-11, .cls-12, .cls-13, .cls-14, .cls-15, .cls-16, .cls-17, .cls-18, .cls-19, .cls-20, .cls-21, .cls-22, .cls-23 {
        stroke-width: 0px;
      }

      .cls-2 {
        fill: #666;
      }

      .cls-3 {
        fill: #f9d5d5;
      }

      .cls-4 {
        fill: #7ad9d7;
      }

      .cls-24 {
        isolation: isolate;
      }

      .cls-6 {
        fill: #038c88;
      }

      .cls-7 {
        fill: #999;
        mix-blend-mode: overlay;
      }

      .cls-8 {
        fill: #293756;
      }

      .cls-9 {
        fill: #0a5a5a;
      }

      .cls-10 {
        fill: #49a5a2;
      }

      .cls-11 {
        fill: #016162;
      }

      .cls-12 {
        fill: #f7baba;
      }

      .cls-13 {
        fill: #494949;
      }

      .cls-14 {
        fill: #fff;
      }

      .cls-15 {
        fill: #d1eced;
      }

      .cls-16 {
        fill: #c7efef;
      }

      .cls-17 {
        fill: #077172;
      }

      .cls-18 {
        fill: #50a0a0;
      }

      .cls-19 {
        fill: #baddde;
      }

      .cls-20 {
        fill: #006263;
      }

      .cls-21 {
        fill: #77c9c9;
      }

      .cls-22 {
        fill: #57bebf;
      }

      .cls-23 {
        fill: #6ebbbf;
      }
    </style>
  </defs>
  <g class="cls-24">
    <g id="Layer_1" data-name="Layer 1">
      <g>
        <circle class="cls-16" cx="164.97" cy="478" r="136.27"/>
        <g>
          <path class="cls-14" d="m182.66,81.93l439.95-.39c17.26-.02,31.27,13.97,31.28,31.23l.57,646.03c.02,17.26-13.97,31.27-31.23,31.28l-439.95.39c-17.26.02-31.27-13.97-31.28-31.23l-.57-646.03c-.02-17.26,13.97-31.27,31.23-31.28Z"/>
          <g>
            <path class="cls-11" d="m333.51,215.85h-66.8v-97.45h66.8v19.5h-47.3v19.5h32.01v19.5h-32.01v19.44h47.3v19.5Z"/>
            <path class="cls-11" d="m366.67,215.85h-19.5v-97.45h39.01c3.58,0,7.02.47,10.33,1.39,3.31.93,6.4,2.24,9.28,3.94,2.88,1.7,5.5,3.74,7.88,6.12,2.38,2.38,4.42,5.02,6.12,7.92,1.7,2.9,3.01,6,3.94,9.31.93,3.31,1.39,6.75,1.39,10.33,0,3.35-.42,6.61-1.26,9.79-.84,3.17-2.04,6.18-3.6,9.04s-3.48,5.48-5.74,7.88c-2.27,2.4-4.8,4.49-7.61,6.25l10.81,25.48h-20.73l-8.49-19.64-21.81.14v19.5Zm0-77.95v39.01h19.5c2.67,0,5.19-.51,7.54-1.53,2.36-1.02,4.42-2.41,6.18-4.18s3.16-3.84,4.18-6.22c1.02-2.38,1.53-4.9,1.53-7.58s-.51-5.2-1.53-7.58c-1.02-2.38-2.41-4.45-4.18-6.22-1.77-1.77-3.83-3.16-6.18-4.18-2.36-1.02-4.87-1.53-7.54-1.53h-19.5Z"/>
            <path class="cls-11" d="m457.39,215.85h-19.5v-97.45h39.01c3.58,0,7.02.47,10.33,1.39,3.31.93,6.4,2.24,9.28,3.94,2.88,1.7,5.5,3.74,7.88,6.12,2.38,2.38,4.42,5.02,6.12,7.92,1.7,2.9,3.01,6,3.94,9.31.93,3.31,1.39,6.75,1.39,10.33,0,5.35-1.02,10.39-3.06,15.12-2.04,4.73-4.82,8.87-8.36,12.4-3.53,3.53-7.67,6.32-12.4,8.36-4.73,2.04-9.77,3.06-15.12,3.06h-19.5v19.5Zm0-77.95v39.01h19.5c2.67,0,5.19-.51,7.54-1.53,2.36-1.02,4.42-2.41,6.18-4.18s3.16-3.84,4.18-6.22c1.02-2.38,1.53-4.9,1.53-7.58s-.51-5.2-1.53-7.58c-1.02-2.38-2.41-4.45-4.18-6.22-1.77-1.77-3.83-3.16-6.18-4.18-2.36-1.02-4.87-1.53-7.54-1.53h-19.5Z"/>
          </g>
          <path class="cls-20" d="m183.26,792.07c-8.76,0-17-3.41-23.2-9.6-6.21-6.2-9.63-14.44-9.64-23.22l-.57-646.03c0-8.77,3.4-17.02,9.6-23.23,6.2-6.21,14.44-9.63,23.22-9.64l439.95-.39h.03c18.1,0,32.83,14.71,32.84,32.82l.57,646.03c.02,18.11-14.7,32.86-32.81,32.87l-439.95.39h-.03Zm-.6-708.54c-7.92,0-15.37,3.1-20.97,8.71-5.6,5.61-8.68,13.06-8.67,20.98l.57,646.03c0,7.92,3.1,15.37,8.71,20.97,5.6,5.59,13.04,8.67,20.96,8.67h.03l439.95-.39c7.92,0,15.37-3.1,20.97-8.71,5.6-5.61,8.68-13.06,8.67-20.98l-.57-646.03c-.01-16.35-13.32-29.64-29.66-29.64h-.03l-439.95.39h0Zm0-1.59h.01-.01Z"/>
          <g>
            <path class="cls-19" d="m489.55,381.23l-.09,18.82c17.21-.44,33.8-6.51,47.18-17.26l-10.76-15.57c-10.21,8.64-22.94,13.55-36.34,14.01Z"/>
            <path class="cls-10" d="m489.55,381.23l-.09,18.82c17.21-.44,33.8-6.51,47.18-17.26l-10.76-15.57c-10.21,8.64-22.94,13.55-36.34,14.01Z"/>
            <path class="cls-15" d="m529.4,364.01l10.84,15.7c16.15-14.65,25.42-35.35,25.52-57.21,0-.67,0-1.27-.01-1.82l-18.91-.09c.02.6.02,1.21.02,1.82-.07,15.59-6.41,30.63-17.46,41.6Z"/>
            <path class="cls-4" d="m529.4,364.01l10.84,15.7c16.15-14.65,25.42-35.35,25.52-57.21,0-.67,0-1.27-.01-1.82l-18.91-.09c.02.6.02,1.21.02,1.82-.07,15.59-6.41,30.63-17.46,41.6Z"/>
            <path class="cls-19" d="m506.96,266.27c21.6,7.48,37.16,26.98,39.56,49.61l18.98.09c-1.19-15.28-6.81-29.69-16.34-41.82-9.42-11.98-21.92-20.84-36.26-25.74l-5.94,17.86Z"/>
            <path class="cls-11" d="m506.96,266.27c21.6,7.48,37.16,26.98,39.56,49.61l18.98.09c-1.19-15.28-6.81-29.69-16.34-41.82-9.42-11.98-21.92-20.84-36.26-25.74l-5.94,17.86Z"/>
            <path class="cls-19" d="m409.18,321.78c-.04,7.58,1.02,15.05,3.13,22.25l17.55-7.53c-1.2-4.76-1.79-9.67-1.77-14.63.08-18.19,8.65-35.39,23.04-46.49l-11.82-14.7c-8.84,6.88-16.19,15.67-21.36,25.56-5.77,11.04-8.72,23-8.78,35.54Z"/>
            <path class="cls-23" d="m409.18,321.78c-.04,7.58,1.02,15.05,3.13,22.25l17.55-7.53c-1.2-4.76-1.79-9.67-1.77-14.63.08-18.19,8.65-35.39,23.04-46.49l-11.82-14.7c-8.84,6.88-16.19,15.67-21.36,25.56-5.77,11.04-8.72,23-8.78,35.54Z"/>
            <path class="cls-15" d="m413.78,348.52c5.24,14.53,14.6,27.06,27.18,36.32,12.8,9.43,27.9,14.66,43.8,15.19l.09-18.82c-24.36-1.09-45.86-17.2-53.65-40.16l-17.42,7.47Z"/>
            <path class="cls-4" d="m413.78,348.52c5.24,14.53,14.6,27.06,27.18,36.32,12.8,9.43,27.9,14.66,43.8,15.19l.09-18.82c-24.36-1.09-45.86-17.2-53.65-40.16l-17.42,7.47Z"/>
            <path class="cls-15" d="m443.12,257.9l11.85,14.75c9.74-6.36,21.02-9.69,32.77-9.63,1.35,0,2.69.06,3.99.15,3.62.25,7.22.84,10.73,1.76l5.95-17.89c-6.28-1.74-12.79-2.68-19.39-2.81-.39,0-.79-.01-1.19-.02-16.13-.07-31.53,4.65-44.71,13.69Z"/>
            <path class="cls-4" d="m443.12,257.9l11.85,14.75c9.74-6.36,21.02-9.69,32.77-9.63,1.35,0,2.69.06,3.99.15,3.62.25,7.22.84,10.73,1.76l5.95-17.89c-6.28-1.74-12.79-2.68-19.39-2.81-.39,0-.79-.01-1.19-.02-16.13-.07-31.53,4.65-44.71,13.69Z"/>
          </g>
          <g>
            <rect class="cls-23" x="564.13" y="231.95" width="55.5" height="1.08" transform="translate(1182.67 467.71) rotate(-179.73)"/>
            <rect class="cls-23" x="546.87" y="240.21" width="72.72" height="1.08" transform="translate(1165.34 484.2) rotate(-179.73)"/>
            <rect class="cls-23" x="589.18" y="248.61" width="30.37" height="1.08" transform="translate(1207.57 501.09) rotate(-179.73)"/>
          </g>
          <g>
            <rect class="cls-23" x="351.13" y="257.15" width="55.5" height="1.08" transform="translate(756.56 517.13) rotate(-179.73)"/>
            <rect class="cls-23" x="333.87" y="265.41" width="72.72" height="1.08" transform="translate(739.23 533.62) rotate(-179.73)"/>
            <rect class="cls-23" x="376.18" y="273.81" width="30.37" height="1.08" transform="translate(781.46 550.51) rotate(-179.73)"/>
          </g>
          <g>
            <rect class="cls-23" x="568.24" y="396.96" width="55.5" height="1.08" transform="translate(1190.13 797.75) rotate(-179.73)"/>
            <rect class="cls-23" x="550.98" y="405.22" width="72.72" height="1.08" transform="translate(1172.8 814.23) rotate(-179.73)"/>
            <rect class="cls-23" x="593.29" y="413.62" width="30.37" height="1.08" transform="translate(1215.03 831.13) rotate(-179.73)"/>
          </g>
          <path class="cls-11" d="m561.66,284.83l35.04.16c.5,0,.97-.27,1.21-.72l14.31-26.69c.36-.66.11-1.49-.56-1.84-.66-.36-1.49-.11-1.84.56l-13.92,25.97-34.22-.16c-.75,0-1.36.6-1.37,1.35,0,.75.6,1.36,1.35,1.37Z"/>
          <path class="cls-23" d="m367.09,311.62l35.04.16c.75,0,1.36-.6,1.37-1.35,0-.75-.6-1.36-1.35-1.37l-34.22-.16-13.68-26.09c-.35-.66-1.17-.92-1.84-.57-.66.35-.92,1.17-.57,1.84l14.06,26.82c.23.45.7.73,1.2.73Z"/>
          <path class="cls-10" d="m539.53,428.39l35.04.16c.75,0,1.36-.6,1.37-1.35s-.6-1.36-1.35-1.37l-34.22-.16-13.68-26.09c-.35-.66-1.17-.92-1.84-.57-.66.35-.92,1.17-.57,1.84l14.06,26.82c.23.45.7.73,1.2.73Z"/>
          <g>
            <rect class="cls-23" x="502.88" y="562.98" width="4.22" height="247.86" transform="translate(-182.62 1190.96) rotate(-89.92)"/>
            <rect class="cls-23" x="502.86" y="584.4" width="4.22" height="247.86" transform="translate(-204.06 1212.33) rotate(-89.92)"/>
            <rect class="cls-23" x="502.85" y="605.82" width="4.22" height="247.86" transform="translate(-225.49 1233.7) rotate(-89.92)"/>
            <rect class="cls-23" x="502.83" y="627.24" width="4.22" height="247.86" transform="translate(-246.93 1255.08) rotate(-89.92)"/>
          </g>
          <rect class="cls-23" x="279.55" y="233.44" width="27.03" height="27.03" transform="translate(587.61 492.16) rotate(179.66)"/>
          <rect class="cls-23" x="177.21" y="233.88" width="86.11" height="27.03" transform="translate(442.01 493.47) rotate(179.66)"/>
          <rect class="cls-23" x="279.85" y="283.92" width="27.03" height="27.03" transform="translate(588.51 593.12) rotate(179.66)"/>
          <rect class="cls-23" x="177.51" y="284.36" width="86.11" height="27.03" transform="translate(442.92 594.43) rotate(179.66)"/>
          <rect class="cls-23" x="280.15" y="334.41" width="27.03" height="27.03" transform="translate(589.42 694.08) rotate(179.66)"/>
          <rect class="cls-23" x="177.82" y="334.84" width="86.11" height="27.03" transform="translate(443.83 695.39) rotate(179.66)"/>
          <rect class="cls-23" x="280.46" y="384.89" width="27.03" height="27.03" transform="translate(590.33 795.04) rotate(179.66)"/>
          <rect class="cls-23" x="178.12" y="385.32" width="86.11" height="27.03" transform="translate(444.73 796.34) rotate(179.66)"/>
          <g>
            <path class="cls-10" d="m263.83,598.08c13.46.07,26.32-4.52,36.59-13.01l-36.89-39.23-46.48,27.33c4.76,6.99,11.06,12.88,18.39,17.16,8.58,5.01,18.4,7.68,28.4,7.74Z"/>
            <path class="cls-11" d="m261.41,538.92l.29-53.05c-28.62,1.55-51.73,24.29-53.6,52.75l53.31.3Z"/>
            <path class="cls-23" d="m258.36,543.17l-50.28-.28c.5,8.99,2.88,17.77,6.98,25.74l43.3-25.46Z"/>
            <path class="cls-4" d="m303.66,581.26c9.98-10.46,15.48-24.03,15.56-38.58.17-30.05-23.36-54.84-53.11-56.78l-.31,55.11,37.85,40.25Z"/>
          </g>
          <g>
            <path class="cls-4" d="m202.1,680.92c-.17,31.35,25.11,56.92,56.49,57.1,31.37.17,56.94-25.11,57.11-56.47l-56.8-.31,31.86-47.04c-9-6.11-19.84-9.7-31.55-9.76-31.37-.17-56.94,25.11-57.11,56.49Z"/>
            <path class="cls-23" d="m266.88,677.39l56.8.31c.11-19.68-9.81-37.08-24.94-47.35l-31.86,47.04Z"/>
          </g>
          <path class="cls-23" d="m178,758.23l170.33.11.19-290.15-170.33-.11-.19,290.15Zm2.74-2.73l.19-284.68,164.85.11-.19,284.68-164.85-.11Z"/>
          <g>
            <rect class="cls-23" x="435.16" y="475.18" width="147.84" height="1.56" transform="translate(-2.41 2.59) rotate(-.29)"/>
            <rect class="cls-23" x="435.22" y="487.11" width="193.71" height="1.56" transform="translate(-2.47 2.71) rotate(-.29)"/>
            <rect class="cls-23" x="435.28" y="499.45" width="80.89" height="1.56" transform="translate(-2.55 2.44) rotate(-.29)"/>
            <rect class="cls-23" x="434.69" y="547.25" width="147.84" height="1.56" transform="translate(-2.78 2.59) rotate(-.29)"/>
            <rect class="cls-23" x="434.75" y="559.19" width="193.71" height="1.56" transform="translate(-2.83 2.7) rotate(-.29)"/>
            <rect class="cls-23" x="434.81" y="571.52" width="80.89" height="1.56" transform="translate(-2.92 2.44) rotate(-.29)"/>
            <rect class="cls-23" x="434.23" y="618.97" width="147.84" height="1.56" transform="translate(-3.14 2.59) rotate(-.29)"/>
            <rect class="cls-23" x="434.29" y="630.91" width="193.71" height="1.56" transform="translate(-3.2 2.7) rotate(-.29)"/>
            <rect class="cls-23" x="434.35" y="643.24" width="80.89" height="1.56" transform="translate(-3.26 2.42) rotate(-.29)"/>
            <path class="cls-23" d="m379.45,506.64l37.86.21.21-37.86-37.86-.21-.21,37.86Zm2.75-2.72l.18-32.39,32.39.18-.18,32.39-32.39-.18Z"/>
            <path class="cls-23" d="m379.05,578.36l37.86.21.21-37.86-37.86-.21-.21,37.86Zm2.75-2.72l.18-32.39,32.39.18-.18,32.39-32.39-.18Z"/>
            <path class="cls-23" d="m378.65,650.08l37.86.21.21-37.86-37.86-.21-.21,37.86Zm2.75-2.72l.18-32.39,32.39.18-.18,32.39-32.39-.18Z"/>
            <path class="cls-23" d="m400.64,491.33c2.22-2.06,4.43-4.12,6.65-6.18,1.32,1.7,2.64,3.4,3.96,5.1-3.75,2.45-7.51,4.91-11.26,7.36-4.75-5.16-9.49-10.31-14.24-15.47,1.82-1.38,3.64-2.76,5.46-4.14,3.14,4.44,6.29,8.89,9.43,13.33Z"/>
            <path class="cls-23" d="m400.24,563.05c2.22-2.06,4.43-4.12,6.65-6.18,1.32,1.7,2.64,3.4,3.96,5.1-3.75,2.45-7.51,4.91-11.26,7.36-4.75-5.16-9.49-10.31-14.24-15.47,1.82-1.38,3.64-2.76,5.46-4.14,3.14,4.44,6.29,8.89,9.43,13.33Z"/>
            <path class="cls-23" d="m399.84,634.77c2.22-2.06,4.43-4.12,6.65-6.18,1.32,1.7,2.64,3.4,3.96,5.1-3.75,2.45-7.51,4.91-11.26,7.36-4.75-5.16-9.49-10.31-14.24-15.47,1.82-1.38,3.64-2.76,5.46-4.14,3.14,4.44,6.29,8.89,9.43,13.33Z"/>
          </g>
        </g>
        <g>
          <rect class="cls-18" x="819.89" y="770.21" width="45.75" height="20.27" transform="translate(1685.53 1560.68) rotate(180)"/>
          <rect class="cls-18" x="628.72" y="770.21" width="45.75" height="20.27" transform="translate(1303.19 1560.68) rotate(180)"/>
          <rect class="cls-23" x="572.65" y="428.54" width="342.69" height="342.69" rx="61.8" ry="61.8"/>
          <path class="cls-14" d="m853.55,753.99h-219.1c-24.57,0-44.55-19.99-44.55-44.55v-219.1c0-24.57,19.99-44.55,44.55-44.55h219.1c24.57,0,44.55,19.99,44.55,44.55v219.1c0,24.57-19.99,44.55-44.55,44.55Zm-219.1-307.14c-23.98,0-43.49,19.51-43.49,43.49v219.1c0,23.98,19.51,43.49,43.49,43.49h219.1c23.98,0,43.49-19.51,43.49-43.49v-219.1c0-23.98-19.51-43.49-43.49-43.49h-219.1Z"/>
          <g>
            <path class="cls-18" d="m702.66,623.1c0,20.93,17.02,37.95,37.95,37.95s37.95-17.03,37.95-37.95-17.03-37.95-37.95-37.95-37.95,17.02-37.95,37.95Zm10.25,0c0-15.27,12.43-27.69,27.69-27.69s27.7,12.43,27.7,27.69-12.43,27.7-27.7,27.7-27.69-12.43-27.69-27.7Z"/>
            <path class="cls-21" d="m712.91,623.1c0,15.27,12.43,27.7,27.69,27.7s27.7-12.43,27.7-27.7-12.43-27.69-27.7-27.69-27.69,12.43-27.69,27.69Z"/>
            <g>
              <rect class="cls-14" x="740.61" y="619.68" width="60.09" height="6.84"/>
              <circle class="cls-14" cx="798.82" cy="623.1" r="9" transform="translate(-206.63 747.35) rotate(-45)"/>
            </g>
            <g>
              <rect class="cls-14" x="758.17" y="614.19" width="6.84" height="60.09" transform="translate(-232.48 727.23) rotate(-45)"/>
              <path class="cls-14" d="m775.15,670.52c3.52,3.52,9.22,3.52,12.73,0,3.52-3.52,3.52-9.22,0-12.73s-9.22-3.52-12.73,0c-3.52,3.52-3.52,9.22,0,12.73Z"/>
            </g>
            <g>
              <rect class="cls-14" x="736.82" y="622.73" width="6.84" height="60.09"/>
              <circle class="cls-14" cx="740.24" cy="680.95" r="9"/>
            </g>
            <g>
              <rect class="cls-14" x="689.05" y="640.3" width="60.09" height="6.84" transform="translate(-244.56 697.02) rotate(-45)"/>
              <path class="cls-14" d="m692.82,657.27c-3.52,3.52-3.52,9.22,0,12.73,3.52,3.52,9.22,3.52,12.73,0s3.52-9.22,0-12.73c-3.52-3.52-9.22-3.52-12.73,0Z"/>
            </g>
            <g>
              <rect class="cls-14" x="680.52" y="618.94" width="60.09" height="6.84"/>
              <circle class="cls-14" cx="682.39" cy="622.36" r="9" transform="translate(-153.73 1014.64) rotate(-67.5)"/>
            </g>
            <g>
              <rect class="cls-14" x="716.21" y="571.18" width="6.84" height="60.09" transform="translate(-214.36 684.95) rotate(-45)"/>
              <path class="cls-14" d="m706.07,574.94c-3.52-3.52-9.22-3.52-12.73,0-3.52,3.52-3.52,9.22,0,12.73,3.52,3.52,9.22,3.52,12.73,0s3.52-9.22,0-12.73Z"/>
            </g>
            <g>
              <rect class="cls-14" x="737.56" y="562.64" width="6.84" height="60.09"/>
              <circle class="cls-14" cx="740.98" cy="564.52" r="9" transform="translate(-182.15 689.29) rotate(-45)"/>
            </g>
            <g>
              <rect class="cls-14" x="732.07" y="598.33" width="60.09" height="6.84" transform="translate(-202.28 715.13) rotate(-45)"/>
              <circle class="cls-14" cx="782.03" cy="581.83" r="9"/>
            </g>
            <circle class="cls-18" cx="740.61" cy="623.1" r="16.57"/>
            <circle class="cls-21" cx="740.61" cy="623.1" r="8.34" transform="translate(-223.68 706.19) rotate(-45)"/>
          </g>
        </g>
        <path class="cls-20" d="m960.01,793.04H67.76c-.88,0-1.59-.71-1.59-1.59s.71-1.59,1.59-1.59h892.25c.88,0,1.59.71,1.59,1.59s-.71,1.59-1.59,1.59Z"/>
        <g>
          <path class="cls-3" d="m675.75,362.97c4.15-6.88,30.17-71.84,40.3-102.02-11.53-2.84-40.33,15.08-51.86,12.23-12.12,28.49-19.17,33.23-31.56,74.42-6.76,22.47,29.6,37.8,43.13,15.36Z"/>
          <g>
            <g>
              <polygon class="cls-3" points="741.24 241.26 753.51 269.01 763.6 241.26 763.31 231.56 762.89 218.14 743.4 219.73 742.46 229.07 741.24 241.26"/>
              <path class="cls-12" d="m743.31,225.9c4.98,11.36,12.29,13.43,20-.03l-.41-7.74-19.5,1.59-.08,6.17Z"/>
            </g>
            <g>
              <path class="cls-3" d="m734.16,208.39c.41,3.23,1.15,6.54,3.03,10,2.5,4.61,5.91,7.47,7.82,8.84.93.67,1.64,1.18,2.75,1.69.87.41,5.6,2.5,10.47.56,1.51-.6,2.41-1.34,3.94-2.6,3.99-3.29,5.9-6.98,6.47-8.15,1.57-3.23,2.05-6.14,2.3-8.3,1.61-14.41,3.07-27.41-5.5-33.98-7.03-5.39-19.05-5.1-26.02.68-8.32,6.9-6.75,19.35-5.24,31.25Z"/>
              <path class="cls-3" d="m732.96,200.45s-2.26-2.28-3.57-.24-.96,10.17,5.09,10.26c0,0-.87-9.92-1.52-10.02Z"/>
              <path class="cls-3" d="m772.41,200.45s2.26-2.28,3.57-.24c1.31,2.04.96,10.17-5.09,10.26,0,0,.87-9.92,1.52-10.02Z"/>
            </g>
            <path class="cls-5" d="m771.21,204.53c.11-6.47-2.67-10.8-2.67-10.8-.12,1.11.18,6.22,1.6,6.67-7.78,1.86-9.55-7.17-9.55-7.17-1.02,2.77-.79,6.5-.79,6.5-5.04-2.65-4.19-7.58-4.19-7.58l-2.35,1.42s2.83-4.65,2.23-6.48c-1.31-4-8.93-.75-8.93-.75-8.5-5.25-7.98,16.02-7.98,16.02-.29-.58-3.25-3.68-2.37-5.6-1.13,3.52-.88,10.01-1.05,9.87-3.6-7.8-9.51-19.27-2.31-29.2,6.09-8.4,15.73-5.6,15.73-5.6,21.84-6.87,26.48,8.14,27.39,14.73.63,4.61-2.8,17.05-4.74,17.98Z"/>
          </g>
          <path class="cls-9" d="m690.09,297.51c.41,2.36.79,4.61,1.12,6.77,6.16,39.01,2.75,49.63,6.87,58.7h.02s0,.02.02.04c.75,1.67,1.77,3.28,3.14,5.01,9.64,12.09,26.99,18.89,45.29,20.61,6.14.59,12.41.61,18.51.04,18.1-1.67,34.87-8.3,43.54-19.75l.02-.02c.35-.45.67-.9.98-1.35,3.95-5.81,2.94-8.46,4.75-39.46.04-.57.06-1.14.1-1.71v-.02c3.02-51.08,8.15-86.57-2.63-91.66-.12-.08-.24-.14-.35-.18-.06-.02-.12-.04-.2-.06-.57-.2-1.59-.43-3.44-.86-9.52-2.22-17.22-2.32-19.95-2.3-10.07.08-18.55,2.08-24.46,3.97.49,5.67-3.38,10.6-8.38,11.82-.84.24-1.75.33-2.65.31-1.02-.02-2-.2-2.94-.51h-.02c-4.67-1.53-8.11-6.32-7.58-11.74-15.29-2.18-38.36-3.67-50.43,4.93-2.12,1.51-3.89,3.32-5.22,5.5-2.2,3.53-3.91,6.75,3.89,51.92Z"/>
          <path class="cls-1" d="m755.05,247.1v.02l10.01,141.56.1,5.58c19.35,4.22,37.52,4.09,53.63-3.61.35-.45-6.24-31.55-4.43-62.55.04-.57.06-1.14.1-1.71,14.19,14.7,30.19,22.46,35.45,26.58,1.65-21.71,3.3-43.42,4.95-65.14-5.6-14.74-12.6-25.32-17.73-32-10.8-14.08-20.42-18.81-23.11-20.12-.86-.41-1.61-.75-2.2-1-.12-.08-.24-.14-.35-.18-.06-.02-.12-.04-.2-.06-.57-.2-1.59-.43-3.44-.86-9.52-2.22-17.22-2.32-19.95-2.3-10.07.08-18.55,2.08-24.46,3.97.49,5.67-3.38,10.6-8.38,11.82Z"/>
          <path class="cls-1" d="m656.66,312.88c11.52-2.87,23.03-5.73,34.55-8.6,6.16,39.01-2.83,85.94-2.83,85.94,1.2,5.33,48.24,11.17,58.24,2.87l-.08-4.46,2.89-141.74c-4.67-1.53-8.11-6.32-7.58-11.74-15.29-2.18-38.36-3.67-50.43,4.93v-.06c-4.42,2.89-8.99,6.52-13.35,11.15-20.77,22.09-21.63,51.12-21.42,61.7Z"/>
          <path class="cls-3" d="m823.39,322.78c-2.91,13.85,20.35,35.16,34.2,38.07s25.73-6.91,28.64-20.76c2.91-13.85-29.77-63.57-43.61-66.48-13.85-2.91-16.31,35.32-19.22,49.16Z"/>
          <path class="cls-1" d="m693.27,327.92c-1.48-.05-16.72-5.45-20.59-6.63-14.49-4.38-31.57-11.26-31.57-11.26,0,0,22.89-52.48,48.89-68.07,5.46-3.27,10.84-5.51,15.88-7.08v.05c-2.61,20.67-9.29,93.1-12.61,92.99Z"/>
          <path class="cls-9" d="m680.37,325.15l25.51-51.68-5.58,58.19c-.02.08-16.06-5.33-19.94-6.5Z"/>
          <path class="cls-1" d="m868.87,297.27c-1.04,7.19-18.56,23.78-30.04,35.09-5.47,5.38-9.98,9.62-11.51,11.21,0,0-5.62-4.58-11.39-10.57-4.01-4.15-8.08-8.98-10.41-13.45-22.49-39.31,4.39-82.67,5.76-85.06,16.69,6.44,45.45,38.87,57.6,62.79Z"/>
          <path class="cls-9" d="m821.15,326.18l-25.51-51.68,5.58,58.19c.02.08,16.06-5.33,19.93-6.5Z"/>
          <g>
            <path class="cls-5" d="m747.48,196.79c-2.04-.88-7.23-.33-8.17,3.26,1.34-1.13,4.36-2.25,7.16-1.09,1.19.49,1.46-1.98,1.01-2.17Z"/>
            <path class="cls-5" d="m759.09,196.43c2.04-.89,7.23-.35,8.18,3.24-1.34-1.13-4.36-2.24-7.16-1.08-1.19.49-1.47-1.97-1.02-2.17Z"/>
            <g>
              <path class="cls-5" d="m764.5,203.62c0-1.19-.97-2.16-2.17-2.16-1.19,0-2.16.97-2.16,2.17,0,1.19.97,2.16,2.17,2.16,1.19,0,2.16-.97,2.16-2.17Z"/>
              <path class="cls-5" d="m762.4,201.46c1.64.08,1.88,1.51,3.57,1.44-.47.5-2.85,1.03-3.57-1.44Z"/>
              <path class="cls-14" d="m763.59,203.22c0-.28-.23-.51-.51-.51-.28,0-.51.23-.51.51,0,.28.23.51.51.51.28,0,.51-.23.51-.51Z"/>
            </g>
            <g>
              <path class="cls-5" d="m742.07,204.3c0-1.19.97-2.16,2.17-2.16,1.19,0,2.16.97,2.16,2.17,0,1.19-.97,2.16-2.17,2.16-1.19,0-2.16-.97-2.16-2.17Z"/>
              <path class="cls-5" d="m744.17,202.14c-1.64.08-1.88,1.51-3.57,1.44.47.5,2.85,1.03,3.57-1.44Z"/>
              <path class="cls-14" d="m742.98,203.9c0-.28.23-.51.51-.51s.51.23.51.51c0,.28-.23.51-.51.51-.28,0-.51-.23-.51-.51Z"/>
            </g>
            <path class="cls-12" d="m756.5,209.48c-.68-2.49-3.22-4.34-2.76-7.13.12-.7-.98-.77-1.1-.07-.4,2.39,1.16,4.33,2.27,6.28.46.81,1,2.03.2,2.82-.78.77-2.04.61-3.03.51-.71-.07-.78,1.03-.07,1.1,1.2.12,2.48.18,3.52-.54.98-.68,1.28-1.84.98-2.96Z"/>
            <g>
              <path class="cls-14" d="m758.94,216.3c-.04,1.02-.61,2.3-1.51,3.37-1.06,1.25-2.57,2.22-4.2,2.15-1.61-.07-3.02-1.13-3.97-2.44-.84-1.16-1.33-2.51-1.29-3.55,3.62,1.34,7.28,1.5,10.98.47Z"/>
              <path class="cls-14" d="m757.42,219.67c-1.06,1.25-2.57,2.22-4.2,2.15-1.61-.07-3.02-1.13-3.97-2.44,1.03-.47,2.53-.73,4.18-.66,1.59.07,3.01.43,4,.95Z"/>
            </g>
          </g>
          <g>
            <polygon class="cls-11" points="766.37 471.68 781.17 436.14 814.86 451.1 800.06 486.64 766.37 471.68"/>
            <g>
              <path class="cls-22" d="m762.85,470.15c-.98,1.79-14.99,28.22-1.4,50.76,4.85,8.05,11.53,12.8,16.21,15.43,3.68-7.18,44.98-87.62,44.98-87.63h0s-40.28-12.57-40.28-12.57c0,0,2.92,28.6-19.51,34.01Z"/>
              <rect class="cls-14" x="752.19" y="489.61" width="106.02" height="11.6" rx="5.09" ry="5.09" transform="translate(-3.44 985.19) rotate(-62.8)"/>
              <path class="cls-14" d="m773.6,503.74c.07-.14.12-.3.15-.46.11-.78-.44-1.51-1.23-1.61-13.42-1.82-17.23,2.61-17.62,3.12-.48.63-.36,1.53.27,2.01.62.47,1.5.36,1.99-.24.11-.12,3.38-3.62,14.98-2.05.62.08,1.2-.24,1.47-.77Z"/>
              <path class="cls-14" d="m773.63,490.78c.07-.14.12-.3.15-.46.11-.78-.44-1.51-1.23-1.61-13.42-1.82-17.23,2.61-17.62,3.12-.48.64-.36,1.53.27,2.01.62.47,1.5.36,1.99-.24.11-.12,3.38-3.62,14.98-2.05.62.08,1.2-.24,1.47-.77Z"/>
            </g>
            <path class="cls-8" d="m757.56,432.31l76.73-9.44c46.42-5.71,40.44-62-5.98-56.29l-76.73,9.44c-40.26,4.95-34.28,61.24,5.98,56.29Z"/>
            <path class="cls-8" d="m742.92,432.31l-76.73-9.44c-46.42-5.71-40.44-62,5.98-56.29l76.73,9.44c40.26,4.95,34.28,61.24-5.98,56.29Z"/>
            <path class="cls-17" d="m747.93,485.24l-89.37-52.15c-54.07-31.55-25.51-80.48,28.55-48.94l89.37,52.15-28.55,48.94Z"/>
            <polygon class="cls-3" points="743.74 465.18 729.56 429.39 695.61 443.76 709.79 479.55 743.74 465.18"/>
            <g>
              <path class="cls-22" d="m722.1,474.1c.95,1.81,14.5,28.48.51,50.78-4.99,7.96-11.75,12.59-16.47,15.14-3.56-7.24-43.44-88.4-43.44-88.4h0s40.5-11.86,40.5-11.86c0,0-3.42,28.54,18.91,34.34Z"/>
              <path class="cls-14" d="m631.39,492.82h95.83c2.81,0,5.09,2.28,5.09,5.09v1.41c0,2.81-2.28,5.09-5.09,5.09h-95.83c-2.81,0-5.09-2.28-5.09-5.09v-1.41c0-2.81,2.28-5.09,5.09-5.09Z" transform="translate(531.75 1328.27) rotate(-116.19)"/>
              <path class="cls-14" d="m710.77,507.5c-.07-.14-.12-.3-.14-.47-.09-.79.47-1.5,1.26-1.59,13.45-1.58,17.18,2.91,17.56,3.43.47.64.33,1.53-.3,2.01-.63.46-1.51.34-1.99-.28-.1-.12-3.31-3.67-14.94-2.31-.62.07-1.19-.26-1.45-.79Z"/>
              <path class="cls-14" d="m710.96,494.54c-.07-.14-.12-.3-.14-.47-.09-.79.47-1.5,1.26-1.59,13.45-1.58,17.18,2.91,17.56,3.43.47.64.33,1.53-.3,2.01-.63.46-1.51.34-1.99-.28-.1-.12-3.31-3.68-14.94-2.31-.62.07-1.19-.26-1.45-.79Z"/>
            </g>
            <path class="cls-17" d="m746.48,481.84l98.19-48.92c56.39-27.18,33.36-87.01-23.03-59.83l-99.77,57.71,24.6,51.04Z"/>
          </g>
          <path class="cls-3" d="m871.95,321.64c-33.76-2.14-80.89,21.79-111.94,28.81,3.56,11.33,7.11,22.66,10.67,33.99,30.64-4.43,63.31-10.94,93.45-18.01,34.97-8.21,21.3-43.93,7.83-44.78Z"/>
          <path class="cls-3" d="m644.14,337.17c33.25-6.22,82.93,11.82,114.61,15.02-2.15,11.68-4.31,23.35-6.46,35.03-30.95-.68-64.17-3.18-94.94-6.55-35.71-3.9-26.47-41.02-13.2-43.5Z"/>
          <path class="cls-13" d="m685.01,298.71h143.74c4.44,0,7.91,3.81,7.51,8.23l-6.75,73.67c-.36,3.88-3.61,6.85-7.51,6.85h-130.24c-3.9,0-7.15-2.97-7.51-6.85l-6.75-73.67c-.4-4.42,3.07-8.23,7.51-8.23Z"/>
          <rect class="cls-8" x="748.1" y="428.03" width="124.25" height="1.06" transform="translate(-106.33 435.61) rotate(-28.32)"/>
          <polygon class="cls-9" points="764.98 294.51 764.01 294.08 777.67 263.43 770.19 255.62 775.95 248.38 770.44 239.54 771.34 238.98 777.25 248.45 771.59 255.56 778.93 263.21 764.98 294.51"/>
          <polygon class="cls-9" points="742.5 294.51 728.55 263.21 735.89 255.56 730.23 248.45 736.14 238.98 737.04 239.54 731.53 248.38 737.29 255.62 729.81 263.43 743.47 294.08 742.5 294.51"/>
        </g>
        <path class="cls-20" d="m736.82,843.7h-37.12c-.88,0-1.59-.71-1.59-1.59s.71-1.59,1.59-1.59h37.12c.88,0,1.59.71,1.59,1.59s-.71,1.59-1.59,1.59Z"/>
        <path class="cls-20" d="m613.27,843.7h-108.32c-.88,0-1.59-.71-1.59-1.59s.71-1.59,1.59-1.59h108.32c.88,0,1.59.71,1.59,1.59s-.71,1.59-1.59,1.59Z"/>
        <g>
          <rect class="cls-11" x="202.6" y="52.27" width="27.75" height="7.93" transform="translate(33.77 185.25) rotate(-49.79)"/>
          <path class="cls-11" d="m218.54,35.26c-5.09,5-5.16,13.18-.16,18.27,5,5.09,13.18,5.16,18.27.16,5.09-5,5.16-13.18.16-18.27-5-5.09-13.18-5.16-18.27-.16Z"/>
          <rect class="cls-11" x="154.2" y="16.82" width="11.12" height="72.9" transform="translate(-.36 1.08) rotate(-.39)"/>
          <circle class="cls-11" cx="159.2" cy="123.09" r="84.63" transform="translate(-40.41 148.62) rotate(-45)"/>
          <circle class="cls-14" cx="159.2" cy="123.09" r="74.13" transform="translate(-13.47 19.74) rotate(-6.81)"/>
          <g>
            <path class="cls-11" d="m154.28,186.35c-.02-2.95,2.36-5.36,5.31-5.38,2.95-.02,5.36,2.36,5.38,5.31.02,2.95-2.36,5.36-5.31,5.38-2.95.02-5.36-2.36-5.38-5.31Z"/>
            <path class="cls-11" d="m198.68,166.9c-.01-1.72,1.37-3.13,3.1-3.14,1.72-.01,3.13,1.37,3.14,3.1.01,1.72-1.37,3.13-3.1,3.14-1.72.01-3.13-1.37-3.14-3.1Z"/>
            <path class="cls-11" d="m115.38,162.57c1.72-.01,3.13,1.37,3.14,3.1.01,1.72-1.37,3.13-3.1,3.14-1.72.01-3.13-1.37-3.14-3.1-.01-1.72,1.37-3.13,3.1-3.14Z"/>
            <path class="cls-11" d="m119.72,79.27c.01,1.72-1.37,3.13-3.1,3.14-1.72.01-3.13-1.37-3.14-3.1-.01-1.72,1.37-3.13,3.1-3.14,1.72-.01,3.13,1.37,3.14,3.1Z"/>
            <path class="cls-11" d="m203.01,83.6c-1.72.01-3.13-1.37-3.14-3.1-.01-1.72,1.37-3.13,3.1-3.14,1.72-.01,3.13,1.37,3.14,3.1.01,1.72-1.37,3.13-3.1,3.14Z"/>
            <path class="cls-11" d="m95.93,118.17c2.95-.02,5.36,2.36,5.38,5.31.02,2.95-2.36,5.36-5.31,5.38-2.95.02-5.36-2.36-5.38-5.31-.02-2.95,2.36-5.36,5.31-5.38Z"/>
            <path class="cls-11" d="m164.11,59.82c.02,2.95-2.36,5.36-5.31,5.38-2.95.02-5.36-2.36-5.38-5.31-.02-2.95,2.36-5.36,5.31-5.38,2.95-.02,5.36,2.36,5.38,5.31Z"/>
            <path class="cls-11" d="m222.46,128c-2.95.02-5.36-2.36-5.38-5.31-.02-2.95,2.36-5.36,5.31-5.38,2.95-.02,5.36,2.36,5.38,5.31.02,2.95-2.36,5.36-5.31,5.38Z"/>
          </g>
          <g>
            <path class="cls-2" d="m163.64,123.05c.02,2.39-1.91,4.34-4.3,4.35-2.39.02-4.34-1.91-4.35-4.3-.02-2.39,1.91-4.34,4.3-4.35,2.39-.02,4.34,1.91,4.35,4.3Z"/>
            <path class="cls-7" d="m162.87,123.84c-.02-2.39-1.97-4.31-4.35-4.3-1,0-1.91.35-2.64.92.78-1.03,2.01-1.7,3.41-1.71,2.39-.02,4.34,1.91,4.35,4.3,0,1.39-.64,2.63-1.66,3.43.56-.74.89-1.65.89-2.65Z"/>
          </g>
          <path class="cls-11" d="m174.38,22.9l-29.65.2c-4.08.03-7.44-3.29-7.46-7.36h0c-.03-4.08,3.29-7.44,7.36-7.46l29.65-.2c4.08-.03,7.44,3.29,7.46,7.36h0c.03,4.08-3.29,7.44-7.36,7.46Z"/>
          <path class="cls-11" d="m174.38,22.9l-29.65.2c-4.08.03-7.44-3.29-7.46-7.36h0c-.03-4.08,3.29-7.44,7.36-7.46l29.65-.2c4.08-.03,7.44,3.29,7.46,7.36h0c.03,4.08-3.29,7.44-7.36,7.46Z"/>
          <g>
            <path class="cls-10" d="m121.44,87.1c-.35-.97-.88-2.29-1.73-3.8,1.47.91,2.76,1.5,3.72,1.89,1.68.68,2.62.83,2.97,1.61.21.47.13,1.02-.08,1.54l34.41,35.93-1.87,1.79-34.41-35.93c-.53.19-1.07.25-1.54.02-.76-.38-.88-1.34-1.48-3.04Z"/>
            <path class="cls-11" d="m158.78,124.72v-3.09s32.56-.08,32.56-.08c.26-.61.64-1.13,1.21-1.34.92-.34,1.81.34,3.71,1.23,1.09.5,2.6,1.12,4.53,1.64-1.93.52-3.44,1.15-4.53,1.66-1.9.89-2.78,1.58-3.7,1.25-.56-.21-.95-.72-1.21-1.34l-32.57.08Z"/>
            <path class="cls-11" d="m163.64,123.05c.02,2.39-1.91,4.34-4.3,4.35-2.39.02-4.34-1.91-4.35-4.3-.02-2.39,1.91-4.34,4.3-4.35,2.39-.02,4.34,1.91,4.35,4.3Z"/>
          </g>
        </g>
        <g>
          <circle class="cls-14" cx="565.16" cy="698.33" r="86.78" transform="translate(-328.27 604.17) rotate(-45)"/>
          <g>
            <path class="cls-1" d="m616.3,709.9l-8.23-8.01s0,0,0,0c.55-3.04.76-6.11.63-9.14l9.25-6.92c1.57-1.17,2.2-3.21,1.58-5.07l-2.38-7.09c-.63-1.87-2.39-3.12-4.36-3.09l-11.49.16h0c-1.72-2.5-3.73-4.82-6-6.91h0s1.65-11.43,1.65-11.43c.28-1.93-.72-3.83-2.47-4.7l-6.7-3.33c-1.76-.88-3.89-.51-5.27.9l-8.01,8.24s0,0,0,0c-3.04-.56-6.09-.76-9.12-.64,0,0,0,0,0,0l-6.92-9.25c-1.17-1.57-3.21-2.2-5.07-1.58l-7.09,2.38c-1.87.63-3.12,2.39-3.09,4.36l.16,11.48c-2.5,1.73-4.82,3.74-6.91,6.02l-11.43-1.65c-1.94-.28-3.83.72-4.7,2.47l-3.33,6.7c-.88,1.76-.52,3.89.9,5.27l8.23,8s0,0,0,0c-.55,3.04-.76,6.11-.63,9.14l-9.25,6.92c-1.57,1.17-2.2,3.21-1.58,5.07l2.38,7.09c.63,1.87,2.39,3.12,4.36,3.09l11.49-.16c1.72,2.5,3.73,4.81,6.01,6.9h0s-1.65,11.45-1.65,11.45c-.28,1.93.72,3.83,2.47,4.7l6.7,3.33c1.76.88,3.89.52,5.27-.9l8.01-8.23s0,0,0,0c3.04.55,6.1.76,9.13.63,0,0,0,0,0,0l6.92,9.25c1.17,1.57,3.21,2.2,5.07,1.58l7.09-2.38c1.87-.63,3.12-2.39,3.09-4.36l-.16-11.48c2.5-1.73,4.82-3.74,6.91-6.02l11.43,1.65c1.93.28,3.83-.72,4.7-2.47l3.33-6.7c.88-1.76.52-3.89-.9-5.27Zm-63.34,12.96c-15.67-7.8-22.05-26.83-14.25-42.5,7.8-15.67,26.83-22.05,42.5-14.25s22.05,26.83,14.25,42.5c-7.8,15.67-26.83,22.05-42.5,14.25Z"/>
            <circle class="cls-1" cx="567.08" cy="694.48" r="12.9" transform="translate(-328.64 734.2) rotate(-53.31)"/>
          </g>
          <path class="cls-11" d="m657.43,671.76c-14.21-51.12-67.17-81.19-118.07-67.05-50.89,14.15-80.73,67.24-66.52,118.36,14.21,51.12,67.17,81.19,118.07,67.04,50.89-14.15,80.73-67.24,66.52-118.36Zm-170.39,47.37c-12.04-43.32,13.16-88.16,56.29-100.15,43.13-11.99,87.86,13.41,99.9,56.73,12.04,43.32-13.16,88.16-56.29,100.15-43.13,11.99-87.86-13.41-99.9-56.73Z"/>
          <rect class="cls-11" x="463.86" y="717.22" width="17.96" height="18.04" transform="translate(-177.24 153.18) rotate(-15.54)"/>
          <path class="cls-11" d="m312.62,789.28c-9.57,2.99-19.72-2.56-22.42-12.26-2.7-9.7,3.13-19.7,12.87-22.07l132-32.18,7.35-1.8,5.52-1.34,7.35-1.8,9.19-2.24,6.69,24.08-9.03,2.83-7.22,2.25-5.41,1.7-7.22,2.25-129.67,40.56Z"/>
          <polygon class="cls-6" points="454.93 744.76 447.94 719.63 455.3 717.84 462.15 742.5 454.93 744.76"/>
          <polygon class="cls-6" points="442.29 748.71 435.08 722.77 442.43 720.97 449.51 746.46 442.29 748.71"/>
        </g>
        <g>
          <path class="cls-14" d="m863.99,73.17h-124.68c-5.29,0-9.57,4.29-9.57,9.57v47.57c0,5.29,4.29,9.57,9.57,9.57h17.28l-3.46,21.01,26.87-21.01h83.98c5.29,0,9.57-4.29,9.57-9.57v-47.57c0-5.29-4.29-9.57-9.57-9.57Z"/>
          <path class="cls-23" d="m753.14,161.96c-.19,0-.37-.05-.54-.15-.38-.22-.58-.65-.51-1.08l3.25-19.77h-16.03c-5.86,0-10.63-4.77-10.63-10.63v-47.57c0-5.86,4.77-10.63,10.63-10.63h124.68c5.86,0,10.64,4.77,10.64,10.63v47.57c0,5.86-4.77,10.63-10.64,10.63h-83.62l-26.58,20.78c-.19.15-.42.22-.65.22Zm-13.82-87.73c-4.7,0-8.51,3.82-8.51,8.51v47.57c0,4.69,3.82,8.51,8.51,8.51h17.28c.31,0,.61.14.81.37.2.24.29.55.24.86l-3.02,18.33,24.73-19.33c.19-.15.42-.22.65-.22h83.98c4.7,0,8.52-3.82,8.52-8.51v-47.57c0-4.69-3.82-8.51-8.52-8.51h-124.68Z"/>
          <path class="cls-4" d="m787.52,102.94c-.02-.83-.58-1.56-1.38-1.79l-4.67-1.36s0,0,0,0c-.4-1.25-.93-2.43-1.58-3.54,0,0,0,0,0,0l2.09-4.42c.35-.75.19-1.64-.41-2.21l-2.3-2.18c-.6-.57-1.51-.69-2.24-.29l-4.26,2.34c-1.14-.59-2.36-1.06-3.62-1.39l-1.65-4.6c-.28-.78-1.03-1.29-1.86-1.27l-3.17.08c-.83.02-1.56.58-1.79,1.38l-1.36,4.67s0,0,0,0c-1.25.4-2.44.93-3.54,1.58l-4.42-2.09c-.75-.35-1.64-.19-2.21.41l-2.18,2.3c-.57.6-.69,1.51-.29,2.24l2.34,4.27h0c-.59,1.14-1.06,2.35-1.39,3.62h0s-4.6,1.65-4.6,1.65c-.78.28-1.29,1.03-1.27,1.86l.08,3.17c.02.83.58,1.56,1.38,1.79l4.67,1.36s0,0,0,0c.39,1.25.92,2.43,1.57,3.54,0,0,0,0,0,0l-2.09,4.42c-.35.75-.19,1.64.41,2.21l2.3,2.18c.6.57,1.51.69,2.24.29l4.26-2.34c1.14.59,2.36,1.06,3.63,1.39l1.65,4.6c.28.78,1.03,1.29,1.85,1.27l3.17-.08c.83-.02,1.56-.58,1.79-1.38l1.36-4.67s0,0,0,0c1.25-.4,2.44-.93,3.54-1.58l4.42,2.09c.75.35,1.64.19,2.21-.41l2.18-2.3c.57-.6.69-1.51.29-2.24l-2.34-4.27c.59-1.14,1.06-2.35,1.39-3.62h0s4.61-1.66,4.61-1.66c.78-.28,1.29-1.03,1.27-1.86l-.08-3.17Zm-22.63,10.72c-4.7.12-8.61-3.59-8.73-8.29-.12-4.7,3.59-8.61,8.29-8.73,4.7-.12,8.61,3.59,8.73,8.29.12,4.7-3.59,8.61-8.29,8.73Z"/>
          <path class="cls-23" d="m854.91,90.53h-48.39c-.59,0-1.06-.47-1.06-1.06s.47-1.06,1.06-1.06h48.39c.59,0,1.06.47,1.06,1.06s-.47,1.06-1.06,1.06Z"/>
          <path class="cls-23" d="m854.91,103.98h-48.39c-.59,0-1.06-.47-1.06-1.06s.47-1.06,1.06-1.06h48.39c.59,0,1.06.47,1.06,1.06s-.47,1.06-1.06,1.06Z"/>
          <path class="cls-23" d="m824.09,119.6h-17.58c-.59,0-1.06-.47-1.06-1.06s.47-1.06,1.06-1.06h17.58c.59,0,1.06.47,1.06,1.06s-.47,1.06-1.06,1.06Z"/>
        </g>
        <g>
          <path class="cls-23" d="m74.1,405.96c-3.93,0-5.99-1.46-7.8-2.75-1.78-1.26-3.32-2.36-6.57-2.36s-4.79,1.09-6.57,2.36c-1.81,1.29-3.87,2.75-7.8,2.75s-5.99-1.46-7.8-2.75c-1.78-1.26-3.32-2.36-6.57-2.36s-4.79,1.09-6.58,2.36c-1.81,1.29-3.87,2.75-7.8,2.75s-5.99-1.46-7.8-2.75c-1.78-1.26-3.32-2.36-6.58-2.36-.59,0-1.06-.47-1.06-1.06s.47-1.06,1.06-1.06c3.93,0,5.99,1.46,7.8,2.75,1.78,1.27,3.32,2.36,6.58,2.36s4.79-1.09,6.58-2.36c1.81-1.29,3.87-2.75,7.8-2.75s5.99,1.46,7.8,2.75c1.78,1.27,3.32,2.36,6.57,2.36s4.79-1.09,6.57-2.36c1.81-1.29,3.87-2.75,7.8-2.75s5.99,1.46,7.8,2.75c1.78,1.27,3.32,2.36,6.57,2.36s4.79-1.09,6.57-2.36c1.81-1.29,3.87-2.75,7.8-2.75.59,0,1.06.47,1.06,1.06s-.47,1.06-1.06,1.06c-3.26,0-4.79,1.09-6.57,2.36-1.81,1.29-3.87,2.75-7.8,2.75Z"/>
          <path class="cls-23" d="m74.1,433.68c-3.93,0-5.99-1.46-7.8-2.75-1.78-1.26-3.32-2.36-6.57-2.36s-4.79,1.09-6.57,2.36c-1.81,1.29-3.87,2.75-7.8,2.75s-5.99-1.46-7.8-2.75c-1.78-1.26-3.32-2.36-6.57-2.36s-4.79,1.09-6.58,2.36c-1.81,1.29-3.87,2.75-7.8,2.75s-5.99-1.46-7.8-2.75c-1.78-1.26-3.32-2.36-6.58-2.36-.59,0-1.06-.47-1.06-1.06s.47-1.06,1.06-1.06c3.93,0,5.99,1.46,7.8,2.75,1.78,1.27,3.32,2.36,6.58,2.36s4.79-1.09,6.58-2.36c1.81-1.29,3.87-2.75,7.8-2.75s5.99,1.46,7.8,2.75c1.78,1.27,3.32,2.36,6.57,2.36s4.79-1.09,6.57-2.36c1.81-1.29,3.87-2.75,7.8-2.75s5.99,1.46,7.8,2.75c1.78,1.27,3.32,2.36,6.57,2.36s4.79-1.09,6.57-2.36c1.81-1.29,3.87-2.75,7.8-2.75.59,0,1.06.47,1.06,1.06s-.47,1.06-1.06,1.06c-3.26,0-4.79,1.09-6.57,2.36-1.81,1.29-3.87,2.75-7.8,2.75Z"/>
        </g>
        <path class="cls-10" d="m85.78,727.53c-.74-8.56,5.62-16.13,14.18-16.88,8.56-.74,16.13,5.62,16.88,14.18.74,8.56-5.62,16.13-14.18,16.88-8.56.74-16.13-5.62-16.88-14.18Zm5.73-.5c.47,5.41,5.25,9.42,10.65,8.95,5.41-.47,9.42-5.25,8.95-10.65-.47-5.41-5.25-9.42-10.65-8.95-5.4.47-9.42,5.25-8.95,10.65Z"/>
        <g>
          <path class="cls-23" d="m89.63,657.92c-.2,0-.4-.05-.58-.17L.48,600.25c-.49-.32-.63-.98-.31-1.47.32-.49.98-.63,1.47-.31l88.57,57.49c.49.32.63.98.31,1.47-.2.31-.54.48-.89.48Z"/>
          <path class="cls-23" d="m88.66,633.15c-.2,0-.4-.05-.58-.17l-67.05-43.52c-.49-.32-.63-.98-.31-1.47.32-.49.98-.63,1.47-.31l67.05,43.52c.49.32.63.98.31,1.47-.2.31-.54.48-.89.48Z"/>
          <path class="cls-23" d="m87.7,608.39c-.2,0-.4-.05-.58-.17l-45.52-29.55c-.49-.32-.63-.98-.31-1.47.32-.49.97-.63,1.47-.31l45.52,29.55c.49.32.63.98.31,1.47-.2.31-.54.48-.89.48Z"/>
          <path class="cls-23" d="m86.73,583.63c-.2,0-.4-.05-.58-.17l-24-15.58c-.49-.32-.63-.98-.31-1.47.32-.49.98-.63,1.47-.31l24,15.58c.49.32.63.98.31,1.47-.2.31-.54.48-.89.48Z"/>
          <path class="cls-23" d="m85.76,558.87c-.2,0-.4-.05-.58-.17l-2.47-1.61c-.49-.32-.63-.98-.31-1.47.32-.49.97-.63,1.47-.31l2.47,1.61c.49.32.63.98.31,1.47-.2.31-.54.48-.89.48Z"/>
        </g>
        <path class="cls-4" d="m83.27,289l13.53-12.95c1.4-1.34,3.35-1.82,5.21-1.28,1.86.54,3.25,1.99,3.71,3.88l4.45,18.19c.46,1.88-.1,3.81-1.5,5.15-1.4,1.34-3.35,1.82-5.21,1.27l-17.98-5.24c-1.86-.54-3.25-1.99-3.71-3.88-.35-1.43-.11-2.88.63-4.08.24-.39.53-.74.87-1.07Zm21.73,7.58l-3.74-15.28c-.12-.48-.5-.64-.66-.69-.16-.05-.57-.12-.93.23l-11.36,10.87c-.36.34-.31.75-.27.91.04.16.18.55.66.69l15.1,4.4c.48.14.81-.11.93-.23.04-.04.1-.11.16-.19.1-.16.19-.41.11-.72Z"/>
        <path class="cls-11" d="m892.58,200.06l-6.07-6.07c-1.38-1.38-1.38-3.61,0-4.99,1.38-1.38,3.61-1.38,4.99,0l6.07,6.07,6.07-6.07c1.38-1.38,3.61-1.38,4.99,0,1.38,1.38,1.38,3.61,0,4.99l-6.07,6.07,6.06,6.06c1.38,1.38,1.38,3.61,0,4.99-.69.69-1.59,1.03-2.49,1.03s-1.81-.34-2.49-1.03l-6.06-6.06-6.06,6.06c-.69.69-1.59,1.03-2.49,1.03s-1.81-.34-2.49-1.03c-1.38-1.38-1.38-3.61,0-4.99l6.06-6.06Z"/>
        <path class="cls-10" d="m500.59,15.59c0-8.6,6.99-15.59,15.59-15.59s15.59,6.99,15.59,15.59-6.99,15.59-15.59,15.59-15.59-6.99-15.59-15.59Zm5.75,0c0,5.43,4.41,9.84,9.84,9.84s9.84-4.41,9.84-9.84-4.41-9.84-9.84-9.84-9.84,4.41-9.84,9.84Z"/>
      </g>
    </g>
  </g>
</svg>